<svg width="410" height="410" fill="none" xmlns="http://www.w3.org/2000/svg"><circle cx="205" cy="205" r="205" fill="#84C294" fill-opacity=".3"/><circle cx="205" cy="205" r="205" fill="#2A2F47" fill-opacity=".02"/><circle cx="205" cy="205" r="204.5" stroke="#0C5E20" stroke-opacity=".4"/><path fill-rule="evenodd" clip-rule="evenodd" d="M187.818 190.212c1.953 3.264-2.32 12.175-3.276 12.706-2.64 1.474-2.625-1.029-5.682-1.511-2.855-.453-5.172 1.297-6.277-2.074-.75-2.289.348-5.367 1.608-6.879 1.922-2.298 1.893-.133 4.432-4.339 1.339-2.22 2.346-3.191 5.403-3.307l3.783 5.403.009.001zm-35.995-13.279l.971 1.388c.087.111.244.299.339.424l3.415 5.29c2.236 2.522 5.167 1.756 7.462 5.021 2.361 3.353 1.64 6.072-.608 9.211-2.837 3.961-1.278 4.89-1.74 9.736 6.269 1.811 4.43 3.964 3.381 9.564-.541 2.895-.077 4.389-.348 7.142-.201 2.019-1.014 4.544-1.356 6.637 3.468-1.253 2.026-3.229 5.311-3.995 2.604-.604 4.521.836 8.105.432 4.915-.557 3.847-.718 8.328.839 3.164 1.101 5.621-.224 13.175.465 7.49-14.901-1.888-12.085-2.657-21.43-.514-6.208-2.396-6.612-1.662-8.399 1.577-1.769 2.635-1.678 3.95-3.257 1.428-1.718 1.34-3.766 2.617-5.503 2.742-3.726 6.249-1.365 6.333-9.556-1.599-.658-7.164-2.762-8.691-3.867-2.876-2.078-2.607-3.272-7.138-5.329-16.658-7.555-9.659-4.765-14.282-10.754-4.889.801-.814 2.664-6.77 3.373-5.825.697-3.318-.323-5.506 4.68-2.192 5.012-8.361 2.495-12.629 7.893v-.005z" fill="#0C5E20"/><path fill-rule="evenodd" clip-rule="evenodd" d="M174.933 198.641c-.141-3.431.507-4.312 2.956-5.988 3.614-2.477 1.648-2.607 4.422-5.21.73.616.312.228 1.13 1.151l2.786 3.586-2.954 8.613c-2.393-1.12-1.387-1.603-3.717-1.971-2.381-.379-1.081.878-4.623-.172v-.009zm9.1-13.832c-3.058.12-4.06 1.087-5.403 3.307-2.539 4.201-2.51 2.041-4.432 4.339-1.265 1.507-2.358 4.585-1.608 6.878 1.1 3.372 3.418 1.622 6.277 2.075 3.052.486 3.041 2.989 5.682 1.511.955-.532 5.229-9.442 3.276-12.707l-3.783-5.403h-.009z" fill="#0C5E20"/><path fill-rule="evenodd" clip-rule="evenodd" d="M174.931 198.641c3.538 1.054 2.238-.203 4.624.172 2.333.373 1.324.851 3.716 1.971l2.954-8.613-2.785-3.586c-.819-.923-.4-.535-1.131-1.151-2.774 2.604-.812 2.733-4.421 5.21-2.449 1.68-3.097 2.561-2.957 5.988v.009z" fill="#0C5E20"/><circle opacity=".6" cx="205" cy="205.131" r="143" fill="#91C29D" fill-opacity=".8"/><circle opacity=".5" cx="205" cy="205.131" r="142" stroke="#0C5E20" stroke-width="2"/><circle cx="176" cy="183.131" r="4" fill="#fff"/></svg>