<svg width="24" height="24" fill="none" xmlns="http://www.w3.org/2000/svg"><path d="M13.253 2c.257 0 .455.21.455.46v3.22c0 1.83 1.495 3.33 3.307 3.34.752 0 1.346.01 1.801.01.307 0 .813-.01 1.239-.01.247 0 .445.2.445.45v8.04c0 2.48-1.99 4.49-4.445 4.49H8.173C5.599 22 3.5 19.89 3.5 17.29V6.51C3.5 4.03 5.5 2 7.966 2h5.287zM8.926 14.9a.743.743 0 00-.742.74c0 .41.336.75.742.75h5.386c.405 0 .743-.34.743-.75s-.338-.74-.743-.74H8.925zm0-5a.751.751 0 00-.742.75c0 .41.336.74.742.74h3.347c.405 0 .742-.33.742-.74s-.337-.75-.742-.75H8.926zm6.224-6.994c0-.43.518-.644.814-.334L19.95 6.76a.477.477 0 01-.34.807c-.813.003-1.773 0-2.462-.006-1.096 0-1.998-.912-1.998-2.018V2.906z" fill="#0C5E20"/></svg>