<svg width="78" height="58" fill="none" xmlns="http://www.w3.org/2000/svg"><path d="M16.746.013L36.293.012c3.65.08 7.29 1.556 10.159 3.8.577.428 1.011.97 1.63 1.334 1.044-.817 1.992-1.716 3.137-2.396C52.88 1.647 54.726.92 56.647.43c1.804-.426 3.641-.493 5.484-.383 2.816.274 5.603 1.233 7.975 2.788 4.571 2.962 7.624 8.111 7.89 13.598.002 9.422 0 18.845 0 28.267-.004.994.021 1.977-.02 2.97-.775.163-1.519.063-2.303.095-3.728-.03-7.459-.007-11.186-.015-1.451-.028-2.865.166-4.32-.11a48.773 48.773 0 01-.02-2.146c.004-9.26-.006-18.523.004-27.784-.02-.777.132-1.552-.437-2.179-.67-.757-1.837-.894-2.561-.133-.68.578-.476 1.36-.504 2.153.015 9.367-.002 18.735.009 28.102.016.678-.025 1.332-.121 2.004-1.045.265-2.023.063-3.079.092-3.572.012-7.143-.016-10.715.014-1.032-.014-2.133.154-3.14-.068-.08-.681-.06-1.358-.056-2.042.003-9.262-.002-18.525.003-27.788-.007-.601.033-1.278-.147-1.856a1.755 1.755 0 00-2.283-.982c-.792.288-1.12 1.08-1.112 1.883.002 9.529 0 19.057.002 28.584.003.745.028 1.482-.07 2.221-1.178.147-2.407.03-3.594.035-1.88.007-3.762-.012-5.641.021-1.223.09-2.431-.035-3.654-.019-1.453.02-2.912-.037-4.364.024-5.195-.053-10.443-.013-15.645-.026-.948-.012-1.919.048-2.858-.055.014-.477.466-.362.802-.405 4.99.01 9.984.002 14.975.005.68.003 1.355.024 2.033-.056.083-.687.063-1.372.06-2.062-.008-.786.047-1.548-.08-2.33-.989-.04-1.969-.015-2.958-.022-4.73.002-9.46-.001-14.19.004-.196-.023-.517.014-.66-.145a6.948 6.948 0 01-.103-.535c.736-.111 1.45-.065 2.191-.068H16.44a16.632 16.632 0 001.541-.067c.135-.96.043-1.896.088-2.874-.005-.36.062-.698-.148-1.013-.45-.174-1.011-.119-1.487-.128-4.465.01-8.929.001-13.392.005-.983-.008-1.97.027-2.95-.024-.06-.392-.125-.729.078-1.094.214-.09.429-.09.659-.097 5.043.013 10.089.002 15.132.006.678.007 1.35.018 2.023-.07a16.16 16.16 0 00-.01-3.413c-.831-.12-1.65-.072-2.485-.075l-13.077-.001c-.767.003-1.533.017-2.3-.026-.12-.59-.123-1.024.014-1.61.457-.103.874-.144 1.34-.071.905.125 1.778-.016 2.679-.048 3.884-.003 7.775.003 11.659-.003.73-.006 1.437.106 2.164-.013.144-.962.119-1.965.018-2.932-.728-.094-1.451-.068-2.182-.065-5.042.003-10.087-.005-15.128.003-.174-.022-.519.029-.561-.203-.199-.53-.076-1.204.025-1.748.024-.318.466-.246.687-.278 4.991.005 9.984.002 14.977.003.72.003 1.438.013 2.158-.025.173-.799.114-1.653.027-2.463-.676-.08-1.349-.06-2.028-.055-5.043.004-10.09-.007-15.132.004-.265-.03-.706.056-.749-.317-.137-.746-.077-1.545.022-2.294.77-.038 1.54-.026 2.31-.024H15.33c.884-.005 1.753.044 2.633-.084.134-.672.097-1.339.067-2.017a4.154 4.154 0 00-.801-.103c-5.044.013-10.09.002-15.133.006-.673.004-1.336.029-2.006-.066-.172-1.013-.006-1.977.044-2.987.656-.104 1.302-.074 1.962-.071 5.043.005 10.088-.005 15.13.005.288-.013.636.008.878-.165.185-.426.21-.964.13-1.417-.205-.093-.468-.08-.69-.087-4.992.013-9.984 0-14.976.006-.702.004-1.4.02-2.1-.052.027-.832.31-1.546.555-2.332.135-.394.279-.86.56-1.175.41-.113.877-.057 1.299-.067 5.254.013 10.51-.006 15.763.01.313-.016.712.028.945-.226.255-.263.243-.567.306-.905-.734-.116-1.464-.087-2.203-.084-4.882.003-9.78-.005-14.661.005a3.237 3.237 0 01-.788-.126c.197-.519.471-.982.797-1.43.544-.754 1.1-1.545 1.78-2.18.334-.354.919-.3 1.365-.332 4.728.003 9.457 0 14.186 0 1.044-.005 2.032.106 3.06-.162V4.5c-5.758-.035-11.526.027-17.28-.032.18-.512.587-.73.985-1.05C9.913 1.39 13.311.135 16.746.014z" fill="#0C5E20"/><path d="M.255 49.383c1.203-.01 2.408-.002 3.612.004.851 1.538 1.498 3.181 2.377 4.703.862-1.532 1.51-3.175 2.377-4.706 1.287-.003 2.574-.01 3.859.006v7.813c-.735.015-1.47.012-2.204.008-.06-1.919.036-3.845-.047-5.763-.403.32-.518.742-.754 1.175-.785 1.523-1.603 3.028-2.363 4.564-.575.04-1.145.04-1.72 0-.85-1.664-1.742-3.307-2.587-4.973a3.001 3.001 0 00-.536-.77c-.093 1.92.01 3.847-.052 5.765-.737.005-1.473.008-2.208-.004C.003 54.734.017 52.263 0 49.79c.022-.215-.055-.411.255-.408zM23.546 49.378c2.286.012 4.574-.011 6.86.01.003.654.005 1.307 0 1.962-2.428.1-4.868 0-7.298.048-.303.013-.675.088-.717.476-.048 1.031-.002 2.07-.022 3.104.026.297-.05.675.21.873.358.09.753.066 1.12.07 1.285-.01 2.57.006 3.854-.004.254-.027.508.018.685-.218.225-.366.117-.93.107-1.348-1.017-.13-2.013-.045-3.038-.08a206.42 206.42 0 010-1.407c1.701-.017 3.406-.012 5.107-.002.003.924.005 1.85.006 2.776-.008.474.002.904-.25 1.317-.341.533-.882.772-1.457.873-1.374.193-2.707.173-4.087.17-.919-.013-1.86-.033-2.766-.205-.69-.127-1.434-.73-1.512-1.518-.116-.805-.045-1.647-.062-2.46.019-.902-.061-1.844.085-2.732.09-.566.422-1.094.911-1.343.718-.381 1.485-.357 2.264-.362zM32 49.378c2.104 0 4.208.002 6.313 0 .8.019 1.723.016 2.425.45.54.354.73 1.034.734 1.646.004.795.072 1.695-.514 2.326-.52.524-1.24.499-1.922.626.38.495.857.824 1.322 1.234.585.516 1.193 1.006 1.762 1.542-.802.003-1.61.034-2.408-.006-.21-.003-.397-.228-.554-.35-1.38-1.289-2.824-2.51-4.189-3.813 1.016-.011 2.03.006 3.046 0 .437-.011.972-.075 1.231-.473.124-.236.109-.565.026-.813-.245-.39-.659-.509-1.103-.49-1.272.014-2.545-.022-3.816.026-.089 1.97-.01 3.95-.04 5.922-.77.01-1.542.007-2.312.004a382.79 382.79 0 01-.002-7.83zM48.3 49.38c1.38.008 2.787-.041 4.162.11.658.076 1.303.262 1.734.811.337.413.393.908.403 1.426.003 1.2-.008 2.4.001 3.6 0 .562 0 1.19-.319 1.677-.344.5-.884.747-1.462.846-1.207.207-2.495.134-3.719.149-1.26-.021-2.619.072-3.856-.18-.733-.147-1.504-.722-1.54-1.54-.047-1.186-.001-2.377-.017-3.565.013-.62-.051-1.27.06-1.88.201-.652.858-1.123 1.499-1.254.991-.202 2.046-.18 3.053-.2zm-2.316 6.503c.45.096.893.158 1.352.143 1.393-.023 2.788.018 4.179-.018.349-.045.849-.096.855-.56.048-1.02.003-2.047.023-3.068-.023-.294.04-.65-.188-.874-.43-.173-.887-.146-1.342-.15-1.23.01-2.46.004-3.69 0-.394.006-.774-.004-1.128.2-.285.385-.18 1.026-.2 1.486.042.937-.106 1.947.14 2.84zM56.185 49.394c.774-.02 1.55-.022 2.323.001.112 1.9 0 3.817.054 5.72-.026.449.39.604.739.61 1.078.033 2.16-.003 3.238.014.341-.014.747.03 1.067-.11.365-.209.35-.6.363-.985-.002-1.752-.005-3.502-.003-5.255a72.072 72.072 0 012.316.001c.035 1.968.003 3.938.018 5.907.003.76-.088 1.473-.663 1.99-.651.696-1.472.67-2.33.706-1.443.005-2.886.015-4.328-.005-.81-.036-1.554-.077-2.165-.712-.595-.575-.657-1.338-.654-2.146.022-1.911-.024-3.825.025-5.736zM68.338 49.378c2.05.02 4.1-.006 6.148.016.729.02 1.671.1 2.223.63.568.599.53 1.59.492 2.353-.05.75-.278 1.62-1 2.006-.771.402-1.789.312-2.636.326-.366-.023-.784.071-1.08-.193a12.885 12.885 0 01-1.556-1.44c1.035-.045 2.074.014 3.11-.024.467-.017 1.014-.316 1.007-.838.063-.617-.612-.989-1.16-.959-1.206.018-2.421-.048-3.622.046-.016 1.97.021 3.94-.017 5.908-.788.01-1.577.011-2.364-.004-.042-2.525-.014-5.054-.017-7.58.044-.288.245-.231.472-.247z" fill="#000001"/></svg>