<svg width="50" height="50" fill="none" xmlns="http://www.w3.org/2000/svg"><rect width="50" height="50" rx="6" fill="#0C5E20"/><path d="M16.44 16.005h7.519c1.404.03 2.804.585 3.907 1.43.222.161.39.366.627.503.401-.308.766-.647 1.207-.902.638-.416 1.349-.69 2.087-.874.694-.16 1.4-.186 2.11-.145a6.953 6.953 0 013.067 1.05c1.758 1.116 2.932 3.054 3.035 5.12v10.642c-.002.374.008.744-.008 1.118-.298.061-.584.024-.886.036-1.434-.012-2.869-.003-4.302-.006-.558-.01-1.102.062-1.662-.041-.01-.27-.01-.538-.008-.808.002-3.487-.002-6.974.002-10.46-.008-.293.05-.585-.168-.82-.258-.286-.706-.337-.985-.05-.261.217-.183.511-.194.81.006 3.526 0 7.053.003 10.58.007.255-.01.501-.046.754-.402.1-.778.024-1.184.035-1.374.005-2.748-.006-4.121.005-.397-.005-.82.058-1.208-.026-.03-.256-.023-.51-.022-.768l.001-10.462c-.002-.227.013-.481-.056-.699a.68.68 0 00-.878-.37c-.305.109-.43.407-.428.71v10.76c.002.281.012.559-.026.837-.453.055-.926.011-1.382.013-.723.003-1.447-.005-2.17.008-.47.034-.935-.013-1.405-.007-.559.008-1.12-.014-1.679.009-1.998-.02-4.016-.005-6.017-.01-.365-.005-.738.018-1.1-.02.006-.18.18-.137.31-.153 1.918.003 3.84 0 5.759.002.262 0 .521.009.782-.021.032-.259.024-.517.023-.777-.003-.296.018-.583-.031-.877-.38-.015-.757-.005-1.138-.008l-5.457.001c-.076-.008-.2.006-.254-.054a2.55 2.55 0 01-.04-.202c.283-.041.558-.024.843-.025h5.456c.198 0 .396-.007.593-.025.052-.362.016-.714.034-1.082-.002-.136.023-.263-.057-.382-.174-.065-.39-.044-.572-.048-1.718.004-3.434 0-5.151.002-.378-.003-.758.01-1.134-.01-.023-.147-.049-.274.03-.411.082-.034.164-.034.253-.037 1.94.005 3.88.001 5.82.003.26.002.52.006.778-.026.042-.417.046-.87-.004-1.286-.32-.044-.635-.026-.956-.028h-5.03c-.294 0-.589.006-.884-.01a1.26 1.26 0 01.005-.606c.176-.039.337-.054.516-.027.348.047.684-.006 1.03-.018 1.494-.001 2.99.001 4.484-.001.28-.002.553.04.833-.005a4.34 4.34 0 00.007-1.104c-.28-.035-.558-.026-.84-.024-1.939 0-3.879-.002-5.818 0-.067-.008-.2.012-.216-.076-.076-.2-.029-.453.01-.658.009-.12.18-.092.264-.104 1.92.002 3.84 0 5.76 0 .277.002.554.006.83-.009.067-.3.044-.622.01-.927-.26-.03-.518-.022-.78-.02-1.939.001-3.88-.003-5.82.001-.101-.011-.27.021-.287-.12-.053-.28-.03-.581.008-.863.297-.015.592-.01.889-.01h4.968c.34-.001.675.018 1.013-.03.052-.254.038-.505.026-.76a1.633 1.633 0 00-.308-.039c-1.94.005-3.88 0-5.82.003-.26 0-.514.01-.772-.026-.066-.38-.002-.744.017-1.124.252-.04.5-.028.755-.027 1.94.002 3.88-.002 5.82.002.11-.005.243.003.337-.062.07-.16.08-.363.05-.533-.08-.036-.18-.03-.266-.033-1.92.005-3.84 0-5.76.002-.27.001-.538.007-.807-.02.01-.313.118-.582.213-.878.052-.148.107-.324.216-.442.157-.042.336-.021.499-.025 2.02.005 4.042-.003 6.063.003.12-.006.273.011.363-.084.098-.1.093-.214.118-.341-.283-.044-.563-.033-.848-.032-1.877.001-3.761-.002-5.639.002a1.27 1.27 0 01-.303-.047 2.28 2.28 0 01.307-.539c.21-.284.423-.581.685-.82.128-.134.353-.113.524-.125h5.457c.401-.002.781.04 1.177-.061v-.202c-2.215-.013-4.433.01-6.647-.012.07-.193.226-.275.38-.395 1.067-.764 2.374-1.237 3.695-1.282z" fill="#fff"/></svg>