<svg width="24" height="24" fill="none" xmlns="http://www.w3.org/2000/svg"><path fill-rule="evenodd" clip-rule="evenodd" d="M7.5 13.375S7.375 12.75 7.125 12l.875.625.375.375.25.5c.5.75 1.125 1.125 1.875 1.375L11 15c.625.125 1.25.125 1.75 0l.5-.125c.75-.125 1.25-.5 1.75-1.125l.625-.75.375-.375.875-.625-4-1.125c-.625-.25-1.25-.125-1.875 0L7.125 12c-.375-1.25-.75-3.75-.625-5h2c-.125-.375-.25-.75-.25-1.25H6.875c.5-1.75 1.25-2.5 2.75-2.875C10.25 2.375 11.125 2 12 2s1.75.375 2.375.875c1.5.375 2.375 1.125 2.75 2.875H15.75c0 .268-.036.5-.07.715-.028.187-.055.361-.055.535H17.5c.125 1.25-.25 3.75-.625 5.125C16.75 13 16.5 13.5 16.5 13.5c-.51.83-1.087 1.138-1.528 1.374-.423.227-.722.387-.722.876 0 .375.25.625.625.875L12 18.75 9.125 16.5a.94.94 0 00.625-.875c0-.417-.284-.579-.69-.81-.444-.252-1.036-.59-1.56-1.44zM12 3.25a2.507 2.507 0 00-2.5 2.5c0 1.375 1.125 2.5 2.5 2.5s2.5-1.125 2.5-2.5-1.125-2.5-2.5-2.5zm5.36 13.836c1.338.097 2.677.193 4.015 2.664.25.5.5 1.375.625 2.25H2c.125-.875.375-1.75.625-2.25 1.418-2.619 2.741-2.666 4.219-2.719.215-.007.433-.015.656-.031h.125L12 20.25 16.375 17h.125c.287.044.573.065.86.086z" fill="#0C5E20"/></svg>