<svg width="26" height="24" fill="none" xmlns="http://www.w3.org/2000/svg"><path fill-rule="evenodd" clip-rule="evenodd" d="M12.989 2L2.153 12.836l8.287 8.285-.599.599a.956.956 0 01-1.352 0L.28 13.51a.956.956 0 010-1.352l9.483-9.483C10.134 2.305 10.87 2 11.395 2h1.594zm3.506 0h7.648a.956.956 0 01.957.956v7.649c0 .525-.304 1.26-.676 1.632l-9.483 9.483a.955.955 0 01-1.353 0L5.38 13.51a.956.956 0 010-1.352l9.483-9.483C15.234 2.305 15.97 2 16.495 2zm2.136 7.503a1.913 1.913 0 101.465-3.534 1.913 1.913 0 00-1.465 3.534z" fill="#0C5E20"/></svg>