<svg width="20" height="20" viewBox="0 0 20 20" fill="none" xmlns="http://www.w3.org/2000/svg">
<path fill-rule="evenodd" clip-rule="evenodd" d="M11.7677 9.36103H14.0742C14.424 9.36103 14.6988 9.07189 14.6988 8.72321C14.6988 8.36603 14.424 8.08539 14.0742 8.08539H11.7677C11.418 8.08539 11.1432 8.36603 11.1432 8.72321C11.1432 9.07189 11.418 9.36103 11.7677 9.36103ZM16.8138 4.93967C17.3217 4.93967 17.6548 5.11826 17.9879 5.50946C18.3209 5.90065 18.3792 6.46193 18.3043 6.97134L17.5132 12.5501C17.3633 13.6225 16.464 14.4125 15.4065 14.4125H6.32195C5.21448 14.4125 4.29853 13.546 4.20693 12.4234L3.44086 3.15293L2.18351 2.93182C1.85043 2.87229 1.61728 2.54063 1.67557 2.20046C1.73386 1.85263 2.05861 1.62217 2.40001 1.67405L4.38596 1.97935C4.66907 2.03122 4.87724 2.26849 4.90222 2.55764L5.06043 4.46259C5.08541 4.73557 5.30191 4.93967 5.56837 4.93967H16.8138ZM6.18855 15.7566C5.4891 15.7566 4.92287 16.3349 4.92287 17.0493C4.92287 17.7551 5.4891 18.3334 6.18855 18.3334C6.87968 18.3334 7.44591 17.7551 7.44591 17.0493C7.44591 16.3349 6.87968 15.7566 6.18855 15.7566ZM15.5563 15.7566C14.8568 15.7566 14.2906 16.3349 14.2906 17.0493C14.2906 17.7551 14.8568 18.3334 15.5563 18.3334C16.2474 18.3334 16.8136 17.7551 16.8136 17.0493C16.8136 16.3349 16.2474 15.7566 15.5563 15.7566Z" fill="white"/>
</svg>
