<svg width="12" height="11" viewBox="0 0 12 11" fill="none" xmlns="http://www.w3.org/2000/svg">
<path fill-rule="evenodd" clip-rule="evenodd" d="M8.88129 0.25C9.66354 0.25 10.416 0.559167 10.9696 1.11392C11.5238 1.6675 11.8335 2.41417 11.8335 3.19583V7.80417C11.8335 9.43167 10.5094 10.75 8.88129 10.75H3.11854C1.49045 10.75 0.16687 9.43167 0.16687 7.80417V3.19583C0.16687 1.56833 1.48462 0.25 3.11854 0.25H8.88129ZM9.80937 4.065L9.85604 4.01833C9.99545 3.84917 9.99545 3.60417 9.84962 3.435C9.76854 3.34808 9.65712 3.295 9.54104 3.28333C9.41854 3.27692 9.30187 3.31833 9.21379 3.4L6.58354 5.5C6.2452 5.78058 5.76045 5.78058 5.41687 5.5L2.79187 3.4C2.61045 3.26583 2.35962 3.28333 2.20854 3.44083C2.05104 3.59833 2.03354 3.84917 2.16712 4.02417L2.24354 4.1L4.8977 6.17083C5.22437 6.4275 5.62045 6.5675 6.0352 6.5675C6.44879 6.5675 6.85187 6.4275 7.17795 6.17083L9.80937 4.065Z" fill="currentColor"/>
</svg>
