<svg width="13" height="18" viewBox="0 0 13 18" fill="none" xmlns="http://www.w3.org/2000/svg">
<path fill-rule="evenodd" clip-rule="evenodd" d="M6.76368 17.1661L6.76551 17.1652L6.77009 17.162L6.78384 17.1515L6.83793 17.1125C6.88437 17.0786 6.95006 17.0291 7.03501 16.964C7.20368 16.8347 7.44293 16.6445 7.72847 16.4002C8.47803 15.7596 9.17893 15.064 9.82534 14.3194C11.3415 12.5658 12.9163 10.0633 12.9163 7.2015C12.9163 5.49192 12.2408 3.85108 11.0381 2.64108C10.4437 2.04218 9.73667 1.56677 8.95778 1.24221C8.17888 0.917661 7.34348 0.75038 6.49968 0.75C5.6559 0.75032 4.82052 0.917529 4.04163 1.242C3.26273 1.56648 2.55571 2.0418 1.96126 2.64062C0.757538 3.85348 0.0823492 5.49317 0.0830083 7.20196C0.0830083 10.0633 1.65784 12.5658 3.17401 14.3194C3.82043 15.064 4.52132 15.7596 5.27088 16.4002C5.55688 16.6445 5.79568 16.8347 5.96434 16.964C6.04708 17.0277 6.13066 17.0904 6.21505 17.1519L6.22972 17.162L6.23384 17.1652L6.23568 17.1661C6.3938 17.2775 6.60555 17.2775 6.76368 17.1661ZM8.79134 7.16667C8.79134 7.77445 8.5499 8.35735 8.12013 8.78712C7.69036 9.21689 7.10746 9.45833 6.49968 9.45833C5.89189 9.45833 5.30899 9.21689 4.87922 8.78712C4.44945 8.35735 4.20801 7.77445 4.20801 7.16667C4.20801 6.55888 4.44945 5.97598 4.87922 5.54621C5.30899 5.11644 5.89189 4.875 6.49968 4.875C7.10746 4.875 7.69036 5.11644 8.12013 5.54621C8.5499 5.97598 8.79134 6.55888 8.79134 7.16667Z" fill="#0C5E20"/>
</svg>
