<svg width="14" height="15" viewBox="0 0 14 15" fill="none" xmlns="http://www.w3.org/2000/svg">
<path d="M8.41069 3.70246C8.133 3.65117 7.87797 3.82838 7.8251 4.09944C7.77224 4.37051 7.95001 4.63516 8.22014 4.6882C9.03346 4.84676 9.66146 5.47633 9.82064 6.29244V6.29302C9.86596 6.52794 10.0728 6.69874 10.311 6.69874C10.3429 6.69874 10.3749 6.69582 10.4074 6.69C10.6775 6.63578 10.8553 6.37171 10.8024 6.10007C10.5648 4.88115 9.62661 3.93972 8.41069 3.70246Z" fill="currentColor"/>
<path d="M8.37433 1.67129C8.2442 1.65264 8.11348 1.69111 8.0095 1.77389C7.9026 1.85783 7.83579 1.97908 7.82127 2.11491C7.79048 2.38947 7.98858 2.6378 8.26279 2.66869C10.1538 2.87971 11.6235 4.35279 11.8362 6.24965C11.8646 6.50381 12.0778 6.69559 12.3323 6.69559C12.3515 6.69559 12.3701 6.69443 12.3892 6.6921C12.5223 6.67752 12.6408 6.61165 12.7244 6.50672C12.8075 6.4018 12.8453 6.27122 12.8302 6.13773C12.5652 3.77102 10.7335 1.9342 8.37433 1.67129Z" fill="currentColor"/>
<path fill-rule="evenodd" clip-rule="evenodd" d="M6.43514 8.06723C8.76211 10.3935 9.28999 7.70225 10.7716 9.18281C12.2 10.6108 13.0209 10.8969 11.2112 12.7061C10.9845 12.8883 9.54423 15.08 4.48264 10.0198C-0.57957 4.959 1.61088 3.51726 1.79311 3.29064C3.60721 1.47641 3.88838 2.30214 5.31674 3.73011C6.79834 5.21129 4.10818 5.74091 6.43514 8.06723Z" fill="currentColor"/>
</svg>
