<svg width="14" height="15" viewBox="0 0 14 15" fill="none" xmlns="http://www.w3.org/2000/svg">
<path d="M8.41069 3.70317C8.133 3.65188 7.87797 3.82909 7.8251 4.10015C7.77224 4.37121 7.95001 4.63587 8.22014 4.68891C9.03346 4.84747 9.66146 5.47704 9.82064 6.29314V6.29373C9.86596 6.52865 10.0728 6.69945 10.311 6.69945C10.3429 6.69945 10.3749 6.69653 10.4074 6.69071C10.6775 6.63649 10.8553 6.37242 10.8024 6.10078C10.5648 4.88186 9.62661 3.94043 8.41069 3.70317Z" fill="#9B9EB0"/>
<path d="M8.37439 1.67162C8.24426 1.65296 8.11354 1.69144 8.00956 1.77421C7.90266 1.85816 7.83585 1.97941 7.82133 2.11523C7.79054 2.38979 7.98864 2.63812 8.26285 2.66902C10.1538 2.88004 11.6236 4.35311 11.8362 6.24997C11.8647 6.50413 12.0779 6.69592 12.3324 6.69592C12.3515 6.69592 12.3701 6.69475 12.3893 6.69242C12.5223 6.67785 12.6408 6.61198 12.7245 6.50705C12.8076 6.40212 12.8453 6.27154 12.8302 6.13805C12.5653 3.77134 10.7336 1.93452 8.37439 1.67162Z" fill="#9B9EB0"/>
<path fill-rule="evenodd" clip-rule="evenodd" d="M6.4352 8.06723C8.76217 10.3935 9.29006 7.70225 10.7716 9.18281C12.2 10.6108 13.021 10.8969 11.2112 12.7061C10.9846 12.8883 9.54429 15.08 4.48271 10.0198C-0.579509 4.959 1.61094 3.51726 1.79317 3.29064C3.60728 1.47641 3.88844 2.30214 5.31681 3.73011C6.7984 5.21129 4.10824 5.74091 6.4352 8.06723Z" fill="#9B9EB0"/>
</svg>
