<svg width="16" height="16" viewBox="0 0 16 16" fill="none" xmlns="http://www.w3.org/2000/svg">
<path fill-rule="evenodd" clip-rule="evenodd" d="M11.4368 9.48876C11.2496 9.39564 10.3321 8.94689 10.1613 8.88439C9.99045 8.82251 9.86611 8.79189 9.74113 8.97814C9.61679 9.16314 9.25945 9.58189 9.15081 9.70564C9.04153 9.83001 8.93289 9.84501 8.74637 9.75251C8.55985 9.65876 7.95822 9.46314 7.24543 8.83064C6.6909 8.33814 6.31598 7.73001 6.20733 7.54376C6.09869 7.35814 6.1954 7.25751 6.28897 7.16501C6.37313 7.08189 6.47549 6.94814 6.56907 6.84002C6.66264 6.73127 6.69341 6.65377 6.75559 6.52939C6.81839 6.40564 6.78698 6.29752 6.73988 6.20439C6.69341 6.11127 6.32038 5.19689 6.16463 4.82502C6.01328 4.46314 5.85942 4.51252 5.74512 4.50627C5.63585 4.50127 5.5115 4.50002 5.38716 4.50002C5.26281 4.50002 5.06059 4.54627 4.88977 4.73252C4.71833 4.91814 4.23665 5.36752 4.23665 6.28189C4.23665 7.19564 4.90485 8.07876 4.99842 8.20314C5.09199 8.32689 6.3141 10.2031 8.18619 11.0075C8.63207 11.1988 8.97936 11.3131 9.25003 11.3981C9.69717 11.54 10.1041 11.52 10.4257 11.4719C10.7836 11.4188 11.5297 11.0225 11.6854 10.5888C11.8406 10.155 11.8406 9.78314 11.7941 9.70564C11.7476 9.62814 11.6233 9.58189 11.4361 9.48876H11.4368ZM8.0317 14.1156H8.02918C6.91725 14.1158 5.82574 13.8184 4.86905 13.2544L4.64297 13.1206L2.29296 13.7344L2.92034 11.4544L2.77276 11.2206C2.15112 10.2359 1.82214 9.09612 1.82384 7.93314C1.8251 4.52689 4.60968 1.75565 8.03421 1.75565C9.69215 1.75565 11.2509 2.3994 12.4227 3.5669C13.0007 4.13976 13.4589 4.821 13.7706 5.5712C14.0823 6.32141 14.2415 7.12569 14.2389 7.93751C14.2377 11.3438 11.4531 14.1156 8.0317 14.1156ZM13.3145 2.68002C12.6226 1.98685 11.7993 1.43723 10.8923 1.06302C9.98539 0.688815 9.01285 0.497452 8.03107 0.500026C3.91511 0.500026 0.564057 3.8344 0.562801 7.93251C0.562173 9.24251 0.905693 10.5213 1.55945 11.6481L0.5 15.5L4.45896 14.4663C5.55413 15.0601 6.78139 15.3712 8.02856 15.3713H8.0317C12.1477 15.3713 15.4987 12.0369 15.5 7.93814C15.503 6.96144 15.3114 5.99383 14.9363 5.09129C14.5612 4.18875 14.0099 3.36919 13.3145 2.68002Z" fill="#60D568"/>
</svg>
