<svg width="410" height="410" viewBox="0 0 410 410" fill="none" xmlns="http://www.w3.org/2000/svg">
<circle cx="205" cy="205" r="205" fill="#84C294" fill-opacity="0.3"/>
<circle cx="205" cy="205" r="205" fill="#2A2F47" fill-opacity="0.02"/>
<circle cx="205" cy="205" r="204.5" stroke="#0C5E20" stroke-opacity="0.4"/>
<path fill-rule="evenodd" clip-rule="evenodd" d="M187.818 190.212C189.771 193.476 185.498 202.387 184.542 202.918C181.902 204.392 181.917 201.889 178.86 201.407C176.005 200.954 173.688 202.704 172.583 199.333C171.833 197.044 172.931 193.966 174.191 192.454C176.113 190.156 176.084 192.321 178.623 188.115C179.962 185.895 180.969 184.924 184.026 184.808L187.809 190.211L187.818 190.212ZM151.823 176.933L152.794 178.321C152.881 178.432 153.038 178.62 153.133 178.745L156.548 184.035C158.784 186.557 161.715 185.791 164.01 189.056C166.371 192.409 165.65 195.128 163.402 198.267C160.565 202.228 162.124 203.157 161.662 208.003C167.931 209.814 166.092 211.967 165.043 217.567C164.502 220.462 164.966 221.956 164.695 224.709C164.494 226.728 163.681 229.253 163.339 231.346C166.807 230.093 165.365 228.117 168.65 227.351C171.254 226.747 173.171 228.187 176.755 227.783C181.67 227.226 180.602 227.065 185.083 228.622C188.247 229.723 190.704 228.398 198.258 229.087C205.748 214.186 196.37 217.002 195.601 207.657C195.087 201.449 193.205 201.045 193.939 199.258C195.516 197.489 196.574 197.58 197.889 196.001C199.317 194.283 199.229 192.235 200.506 190.498C203.248 186.772 206.755 189.133 206.839 180.942C205.24 180.284 199.675 178.18 198.148 177.075C195.272 174.997 195.541 173.803 191.01 171.746C174.352 164.191 181.351 166.981 176.728 160.992C171.839 161.793 175.914 163.656 169.958 164.365C164.133 165.062 166.64 164.042 164.452 169.045C162.26 174.057 156.091 171.54 151.823 176.938L151.823 176.933Z" fill="#0C5E20"/>
<path fill-rule="evenodd" clip-rule="evenodd" d="M174.933 198.641C174.792 195.21 175.44 194.329 177.889 192.653C181.503 190.176 179.537 190.046 182.311 187.443C183.041 188.059 182.623 187.671 183.441 188.594L186.227 192.18L183.273 200.793C180.88 199.673 181.886 199.19 179.556 198.822C177.175 198.443 178.475 199.7 174.933 198.65L174.933 198.641ZM184.033 184.809C180.975 184.929 179.973 185.896 178.63 188.116C176.091 192.317 176.12 190.157 174.198 192.455C172.933 193.962 171.84 197.04 172.59 199.333C173.69 202.705 176.008 200.955 178.867 201.408C181.919 201.894 181.908 204.397 184.549 202.919C185.504 202.387 189.778 193.477 187.825 190.212L184.042 184.809L184.033 184.809Z" fill="#0C5E20"/>
<path fill-rule="evenodd" clip-rule="evenodd" d="M174.931 198.641C178.469 199.695 177.169 198.438 179.555 198.813C181.888 199.186 180.879 199.664 183.271 200.784L186.225 192.171L183.44 188.585C182.621 187.662 183.04 188.05 182.309 187.434C179.535 190.038 181.497 190.167 177.888 192.644C175.439 194.324 174.791 195.205 174.931 198.632L174.931 198.641Z" fill="#0C5E20"/>
<circle opacity="0.6" cx="205" cy="205.131" r="143" fill="#91C29D" fill-opacity="0.8"/>
<circle opacity="0.5" cx="205" cy="205.131" r="142" stroke="#0C5E20" stroke-width="2"/>
<circle cx="176" cy="183.131" r="4" fill="white"/>
</svg>
