<svg width="24" height="24" viewBox="0 0 24 24" fill="none" xmlns="http://www.w3.org/2000/svg">
<path d="M13.2529 2C13.5101 2.00025 13.708 2.21013 13.708 2.45996V5.67969C13.708 7.50962 15.2029 9.00942 17.0146 9.01953C17.7669 9.01953 18.361 9.03027 18.8164 9.03027C19.1233 9.03027 19.6289 9.01953 20.0547 9.01953C20.302 9.01966 20.4999 9.21993 20.5 9.46973V17.5098C20.5 19.9897 18.51 21.9999 16.0547 22H8.17285C5.5988 21.9998 3.50002 19.8899 3.5 17.29V6.50977C3.50013 4.02987 5.50055 2 7.96582 2H13.2529ZM8.92578 14.9004C8.51984 14.9004 8.18359 15.2306 8.18359 15.6406C8.18372 16.0505 8.51992 16.3906 8.92578 16.3906H14.3115C14.7174 16.3906 15.0546 16.0505 15.0547 15.6406C15.0547 15.2306 14.7175 14.9004 14.3115 14.9004H8.92578ZM8.92578 9.90039C8.51984 9.90039 8.18359 10.2404 8.18359 10.6504C8.18359 11.0604 8.51984 11.3906 8.92578 11.3906H12.2725C12.6783 11.3905 13.0146 11.0603 13.0146 10.6504C13.0146 10.2405 12.6783 9.90053 12.2725 9.90039H8.92578ZM15.1504 2.90625C15.1504 2.47534 15.6678 2.26154 15.9639 2.57227C17.0341 3.69615 18.9046 5.66072 19.9502 6.75879C20.2393 7.06179 20.0272 7.56541 19.6104 7.56641C18.7966 7.5694 17.8374 7.56657 17.1475 7.55957C16.0524 7.55957 15.1504 6.64799 15.1504 5.54199V2.90625Z" fill="#0C5E20"/>
</svg>
