<svg width="78" height="58" viewBox="0 0 78 58" fill="none" xmlns="http://www.w3.org/2000/svg">
<path d="M16.7458 0.0132635C23.2621 0.0116758 29.7768 0.013262 36.2931 0.0116743C39.9435 0.0910589 43.5829 1.56761 46.4519 3.81261C47.0285 4.2397 47.4634 4.78269 48.0826 5.14627C49.1255 4.32861 50.074 3.42998 51.2194 2.75044C52.8799 1.647 54.7264 0.919835 56.647 0.429238C58.4509 0.00373656 60.288 -0.0629471 62.1313 0.0466037C64.9467 0.321275 67.7338 1.28024 70.1065 2.83459C74.677 5.79723 77.7303 10.9461 77.9966 16.4332C77.9982 25.8546 77.9966 35.2775 77.9966 44.7005C77.9919 45.6944 78.0171 46.6772 77.9761 47.6695C77.201 47.833 76.4573 47.733 75.6727 47.7647C71.9451 47.7346 68.2143 47.7584 64.4867 47.7504C63.0356 47.7219 61.6224 47.9156 60.1666 47.6409C60.1399 46.9248 60.1414 46.2104 60.1462 45.4943C60.1509 36.2333 60.1414 26.9707 60.1509 17.7097C60.1304 16.9333 60.2832 16.1585 59.7145 15.5314C59.0433 14.774 57.8774 14.6375 57.1527 15.398C56.4737 15.9759 56.6769 16.7587 56.6486 17.5509C56.6643 26.9183 56.647 36.2857 56.658 45.6531C56.6738 46.331 56.6328 46.9852 56.5367 47.6568C55.4921 47.9219 54.5137 47.7203 53.4582 47.7488C49.8865 47.7615 46.3148 47.733 42.7432 47.7631C41.7112 47.7488 40.6099 47.9171 39.6032 47.6949C39.5228 47.0137 39.5433 46.3374 39.5465 45.6531C39.5496 36.3905 39.5449 27.1279 39.5496 17.8653C39.5433 17.2635 39.5827 16.5872 39.4031 16.0093C39.0596 15.1106 38.0072 14.6613 37.1202 15.0265C36.3277 15.3154 36 16.1077 36.0079 16.9095C36.0095 26.4388 36.0079 35.9666 36.0095 45.4943C36.0126 46.2389 36.0378 46.9756 35.9402 47.7155C34.7617 47.8616 33.5328 47.7457 32.3464 47.7504C30.4669 47.7568 28.5841 47.7377 26.7046 47.7711C25.482 47.8616 24.2736 47.7361 23.051 47.752C21.5984 47.7727 20.1394 47.7155 18.6868 47.7758C13.4924 47.7234 8.24441 47.7631 3.0421 47.7504C2.09365 47.7377 1.12314 47.7981 0.184141 47.6949C0.198321 47.2185 0.650494 47.3329 0.986076 47.29C5.97569 47.2995 10.97 47.2916 15.9612 47.2948C16.6418 47.2979 17.3161 47.3186 17.9936 47.2392C18.0771 46.5517 18.0566 45.8674 18.0535 45.1768C18.0456 44.3909 18.1007 43.6288 17.9731 42.8476C16.9853 42.8064 16.0053 42.8318 15.0159 42.8254C10.2863 42.827 5.5566 42.8238 0.826949 42.8286C0.630011 42.8064 0.308607 42.8429 0.165236 42.6841C0.124273 42.5063 0.0896129 42.3285 0.0628294 42.149C0.798589 42.0379 1.51387 42.084 2.25435 42.0808C6.98243 42.0808 11.7121 42.0808 16.4402 42.0808C16.9554 42.0792 17.469 42.0633 17.981 42.0141C18.1165 41.0535 18.0236 40.1184 18.0692 39.1404C18.0645 38.78 18.1307 38.4418 17.9211 38.1274C17.4705 37.9528 16.9097 38.0083 16.4339 37.9988C11.9689 38.0099 7.5055 38.0004 3.0421 38.0036C2.05899 37.9956 1.07115 38.0306 0.0927643 37.9798C0.0328953 37.5876 -0.0332773 37.251 0.169962 36.8859C0.384231 36.7954 0.598503 36.7969 0.828526 36.789C5.87171 36.8017 10.918 36.7906 15.9612 36.7954C16.6387 36.8017 17.3114 36.8128 17.9842 36.7255C18.0944 35.6205 18.1039 34.4138 17.9731 33.312C17.1428 33.1929 16.3236 33.2405 15.4886 33.2373C11.1292 33.2357 6.77132 33.2373 2.4119 33.2357C1.64463 33.2389 0.878939 33.2532 0.11167 33.2103C-0.00806856 32.6197 -0.0112201 32.1863 0.125849 31.6004C0.582744 31.4972 1.00025 31.4559 1.4666 31.529C2.37094 31.6544 3.24377 31.5131 4.14496 31.4813C8.02857 31.4782 11.9201 31.4845 15.8037 31.4782C16.5331 31.4718 17.2405 31.5845 17.9684 31.4655C18.1118 30.5033 18.0866 29.4999 17.9857 28.533C17.2579 28.4393 16.5347 28.4647 15.8037 28.4679C10.7621 28.4711 5.71731 28.4631 0.675702 28.4711C0.502397 28.4489 0.157362 28.4997 0.114824 28.2678C-0.0836896 27.7376 0.0391953 27.0644 0.140027 26.5198C0.16366 26.2023 0.606378 26.2737 0.826949 26.242C5.81814 26.2467 10.8109 26.2435 15.8037 26.2451C16.5237 26.2483 17.2421 26.2578 17.9621 26.2197C18.1354 25.4211 18.0755 24.5669 17.9889 23.7572C17.313 23.6778 16.6403 23.6969 15.9612 23.7016C10.918 23.7064 5.87171 23.6953 0.828526 23.7064C0.563841 23.6762 0.122701 23.762 0.0801624 23.3889C-0.0569062 22.6427 0.00296034 21.844 0.102217 21.0947C0.872637 21.0565 1.64148 21.0693 2.4119 21.0708C6.71775 21.0708 11.0252 21.0708 15.331 21.0708C16.2149 21.0661 17.0845 21.1153 17.9637 20.9867C18.0976 20.3151 18.0614 19.6483 18.0314 18.9703C17.7652 18.9163 17.5005 18.8687 17.2295 18.8671C12.1863 18.8798 7.13998 18.8687 2.0968 18.8735C1.42406 18.8766 0.760776 18.902 0.0911873 18.8068C-0.0805424 17.7938 0.0848851 16.8301 0.135301 15.8203C0.79071 15.7155 1.43667 15.7457 2.0968 15.7489C7.13998 15.7537 12.1847 15.7441 17.2279 15.7537C17.5147 15.7409 17.8628 15.7616 18.1055 15.5885C18.2898 15.163 18.315 14.6248 18.2347 14.1723C18.0299 14.0786 17.7667 14.0929 17.5446 14.085C12.5534 14.0977 7.56064 14.085 2.56945 14.0913C1.86678 14.0945 1.16883 14.1104 0.469312 14.0389C0.496095 13.207 0.778108 12.4925 1.02389 11.7066C1.15938 11.3129 1.30275 10.8461 1.58476 10.5317C1.9944 10.419 2.46074 10.4746 2.88298 10.465C8.13727 10.4777 13.3932 10.4587 18.6459 10.4746C18.9594 10.4587 19.358 10.5032 19.5912 10.2491C19.8464 9.98556 19.8338 9.68231 19.8968 9.34413C19.1626 9.22823 18.4332 9.25681 17.6943 9.25999C12.8118 9.26316 7.91356 9.25522 3.03265 9.26475C2.76324 9.26316 2.50486 9.206 2.2449 9.13932C2.44184 8.62014 2.71598 8.15654 3.0421 7.70881C3.58565 6.95466 4.1418 6.16398 4.82242 5.52891C5.15642 5.17485 5.74094 5.22883 6.1868 5.19708C10.9149 5.20026 15.6445 5.19708 20.3726 5.19708C21.4172 5.19232 22.405 5.30346 23.4338 5.03514C23.4338 4.85732 23.4338 4.6779 23.4338 4.50008C17.6754 4.46515 11.9074 4.52707 6.15214 4.46833C6.33332 3.95551 6.73981 3.73799 7.13841 3.41886C9.91287 1.38979 13.3112 0.133928 16.7458 0.0132635Z" fill="#0C5E20"/>
<path d="M0.254858 49.3826C1.45834 49.3735 2.66339 49.3811 3.86687 49.3871C4.71795 50.9255 5.36453 52.5684 6.24393 54.0902C7.10603 52.5578 7.75418 50.9149 8.621 49.3841C9.90786 49.3811 11.1947 49.3735 12.48 49.3902C12.48 51.9946 12.48 54.5989 12.48 57.2033C11.7453 57.2185 11.0107 57.2155 10.276 57.2109C10.2162 55.2925 10.3122 53.3664 10.2288 51.4479C9.82605 51.7689 9.71121 52.1899 9.47523 52.6229C8.69022 54.1462 7.87217 55.6513 7.11233 57.1867C6.53655 57.2261 5.96706 57.2261 5.39127 57.1867C4.54176 55.5226 3.64977 53.8797 2.80497 52.2141C2.66024 51.9294 2.49506 51.6751 2.26852 51.4449C2.1757 53.3634 2.27953 55.2909 2.2166 57.2094C1.48036 57.2139 0.744111 57.217 0.00943867 57.2049C0.00314597 54.7337 0.0173049 52.2626 0 49.7914C0.0220244 49.5764 -0.0550571 49.3796 0.254858 49.3826Z" fill="#000001"/>
<path d="M23.5456 49.3784C25.832 49.3899 28.1198 49.3668 30.4062 49.3883C30.4093 50.0418 30.4108 50.6953 30.4062 51.3505C27.9782 51.4495 25.5379 51.3505 23.1084 51.3983C22.8051 51.4115 22.4325 51.4858 22.3909 51.8736C22.3432 52.9051 22.3894 53.9447 22.3694 54.9778C22.3955 55.2749 22.3186 55.6528 22.5788 55.8508C22.9375 55.9416 23.3316 55.9169 23.6996 55.9218C24.9836 55.9103 26.2692 55.9268 27.5533 55.9169C27.8073 55.8904 28.0613 55.935 28.2384 55.699C28.4632 55.3326 28.3554 54.7699 28.3446 54.3507C27.3285 54.2204 26.3323 54.3062 25.307 54.2715C25.3054 53.8028 25.3054 53.3325 25.307 52.8638C27.0082 52.8473 28.7126 52.8523 30.4139 52.8622C30.4169 53.7863 30.4185 54.7121 30.42 55.638C30.4123 56.1116 30.4216 56.5423 30.1691 56.9549C29.8288 57.4879 29.2884 57.7272 28.7126 57.8279C27.3393 58.021 26.0059 58.0012 24.6264 57.9979C23.7073 57.9847 22.7666 57.9649 21.8598 57.7932C21.17 57.6662 20.4264 57.0622 20.3478 56.275C20.2324 55.4696 20.3032 54.628 20.2863 53.8144C20.3047 52.9133 20.2247 51.971 20.3709 51.0831C20.4602 50.5171 20.7928 49.989 21.2824 49.7398C21.9999 49.3586 22.7666 49.3833 23.5456 49.3784Z" fill="#000001"/>
<path d="M31.9994 49.3784C34.1044 49.3784 36.2078 49.3799 38.3128 49.3784C39.1121 49.3966 40.0365 49.3935 40.7381 49.8281C41.2781 50.1825 41.4688 50.8625 41.4718 51.4743C41.4764 52.2693 41.5435 53.1688 40.9578 53.8003C40.4376 54.3243 39.7177 54.2986 39.0358 54.4258C39.4156 54.921 39.8931 55.2496 40.3583 55.66C40.9425 56.1764 41.5511 56.6655 42.1201 57.2016C41.3178 57.2046 40.5108 57.2364 39.7116 57.1955C39.5011 57.1925 39.315 56.9684 39.1579 56.8457C37.7789 55.557 36.3344 54.3364 34.9692 53.0325C35.9851 53.0219 36.9995 53.0386 38.0154 53.0325C38.4516 53.0219 38.987 52.9583 39.2463 52.5601C39.3699 52.3238 39.3546 51.9952 39.2723 51.7469C39.0267 51.3561 38.6133 51.238 38.1694 51.2577C36.8973 51.2713 35.6236 51.235 34.353 51.2835C34.2645 53.2536 34.3423 55.2329 34.3133 57.2046C33.543 57.2152 32.7712 57.2122 32.0009 57.2092C31.9719 54.6014 31.975 51.9861 31.9994 49.3784Z" fill="#000001"/>
<path d="M48.2993 49.3798C49.6803 49.3879 51.0869 49.339 52.4615 49.4907C53.1199 49.5657 53.7655 49.7517 54.1965 50.3015C54.5329 50.7143 54.589 51.2086 54.5986 51.7274C54.6018 52.9266 54.5906 54.1273 54.6002 55.3265C54.6002 55.8893 54.6002 56.5174 54.2814 57.0036C53.937 57.5045 53.3971 57.7508 52.8187 57.8503C51.6124 58.0575 50.3243 57.9841 49.1004 57.9988C47.8395 57.9776 46.481 58.0706 45.2442 57.8193C44.5105 57.6725 43.7399 57.0966 43.7046 56.2792C43.6566 55.0932 43.703 53.9022 43.687 52.7145C43.6998 52.0945 43.6358 51.4436 43.7479 50.8334C43.9482 50.1824 44.605 49.7109 45.2458 49.5804C46.2375 49.3781 47.2916 49.3993 48.2993 49.3798ZM45.9844 55.8828C46.4345 55.979 46.8767 56.041 47.3365 56.0264C48.7287 56.0035 50.1241 56.0443 51.5147 56.0084C51.8639 55.9627 52.3637 55.9122 52.3701 55.4472C52.4182 54.4275 52.3733 53.4013 52.3926 52.38C52.3701 52.0864 52.4326 51.7291 52.2051 51.5056C51.7742 51.3326 51.3176 51.3604 50.8626 51.3555C49.6322 51.3653 48.4035 51.3604 47.1731 51.3555C46.779 51.362 46.3993 51.3522 46.0452 51.5561C45.7601 51.9412 45.8658 52.5823 45.845 53.0424C45.8866 53.9789 45.7392 54.9887 45.9844 55.8828Z" fill="#000001"/>
<path d="M56.185 49.3936C56.9589 49.3739 57.7344 49.3722 58.5083 49.3953C58.6196 51.2955 58.5083 53.2121 58.5624 55.1156C58.5361 55.5639 58.9517 55.7188 59.3008 55.7254C60.379 55.7584 61.4604 55.7221 62.5386 55.7386C62.88 55.7254 63.2863 55.7699 63.606 55.6282C63.9706 55.4205 63.9552 55.0299 63.9691 54.6443C63.9675 52.8924 63.9644 51.1422 63.966 49.3887C64.7384 49.3771 65.5107 49.3771 66.2816 49.3903C66.3171 51.3581 66.2847 53.3275 66.3001 55.2969C66.3032 56.0567 66.2121 56.7703 65.6374 57.2861C64.9855 57.9832 64.1653 57.9569 63.3064 57.9931C61.8636 57.9981 60.4207 58.008 58.9795 57.9882C58.1685 57.9519 57.4254 57.9107 56.8137 57.2762C56.219 56.7011 56.1572 55.938 56.1603 55.1305C56.1819 53.2187 56.1356 51.3054 56.185 49.3936Z" fill="#000001"/>
<path d="M68.3378 49.3784C70.3877 49.3981 72.4375 49.3723 74.4858 49.3936C75.215 49.4133 76.1572 49.4937 76.7087 50.0248C77.2771 50.6226 77.2388 51.6134 77.2005 52.3766C77.1515 53.1277 76.9232 53.9972 76.2016 54.3826C75.4295 54.7847 74.4123 54.6951 73.565 54.7088C73.1989 54.686 72.7807 54.7801 72.485 54.5161C71.9335 54.0761 71.4003 53.6011 70.9285 53.0761C71.9641 53.0306 73.0028 53.0898 74.0384 53.0519C74.5057 53.0352 75.0526 52.7363 75.0465 52.2143C75.1093 51.5967 74.4337 51.225 73.8852 51.2553C72.6795 51.2735 71.4647 51.2068 70.2636 51.3009C70.2482 53.2704 70.285 55.2414 70.2467 57.2094C69.4593 57.2185 68.6703 57.22 67.8828 57.2048C67.8414 54.68 67.869 52.1506 67.866 49.6257C67.9104 49.3374 68.1111 49.3936 68.3378 49.3784Z" fill="#000001"/>
</svg>
