<svg width="78" height="60" viewBox="0 0 78 60" fill="none" xmlns="http://www.w3.org/2000/svg">
<path d="M16.7458 0.0132635C23.2621 0.0116758 29.7768 0.013262 36.2931 0.0116743C39.9435 0.0910589 43.5829 1.56761 46.4519 3.81261C47.0285 4.2397 47.4634 4.78269 48.0826 5.14627C49.1255 4.32861 50.074 3.42998 51.2194 2.75044C52.8799 1.647 54.7264 0.919835 56.647 0.429238C58.4509 0.00373656 60.288 -0.0629471 62.1313 0.0466037C64.9467 0.321275 67.7338 1.28024 70.1065 2.83459C74.677 5.79723 77.7303 10.9461 77.9966 16.4332C77.9982 25.8546 77.9966 35.2775 77.9966 44.7005C77.9919 45.6944 78.0171 46.6772 77.9761 47.6695C77.201 47.833 76.4573 47.733 75.6727 47.7647C71.9451 47.7346 68.2143 47.7584 64.4867 47.7504C63.0356 47.7219 61.6224 47.9156 60.1666 47.6409C60.1399 46.9248 60.1414 46.2104 60.1462 45.4943C60.1509 36.2333 60.1414 26.9707 60.1509 17.7097C60.1304 16.9333 60.2832 16.1585 59.7145 15.5314C59.0433 14.774 57.8774 14.6375 57.1527 15.398C56.4737 15.9759 56.6769 16.7587 56.6486 17.5509C56.6643 26.9183 56.647 36.2857 56.658 45.6531C56.6738 46.331 56.6328 46.9852 56.5367 47.6568C55.4921 47.9219 54.5137 47.7203 53.4582 47.7488C49.8865 47.7615 46.3148 47.733 42.7432 47.7631C41.7112 47.7488 40.6099 47.9171 39.6032 47.6949C39.5228 47.0137 39.5433 46.3374 39.5465 45.6531C39.5496 36.3905 39.5449 27.1279 39.5496 17.8653C39.5433 17.2635 39.5827 16.5872 39.4031 16.0093C39.0596 15.1106 38.0072 14.6613 37.1202 15.0265C36.3277 15.3154 36 16.1077 36.0079 16.9095C36.0095 26.4388 36.0079 35.9666 36.0095 45.4943C36.0126 46.2389 36.0378 46.9756 35.9402 47.7155C34.7617 47.8616 33.5328 47.7457 32.3464 47.7504C30.4669 47.7568 28.5841 47.7377 26.7046 47.7711C25.482 47.8616 24.2736 47.7361 23.051 47.752C21.5984 47.7727 20.1394 47.7155 18.6868 47.7758C13.4924 47.7234 8.24441 47.7631 3.0421 47.7504C2.09365 47.7377 1.12314 47.7981 0.184141 47.6949C0.198321 47.2185 0.650494 47.3329 0.986076 47.29C5.97569 47.2995 10.97 47.2916 15.9612 47.2948C16.6418 47.2979 17.3161 47.3186 17.9936 47.2392C18.0771 46.5517 18.0566 45.8674 18.0535 45.1768C18.0456 44.3909 18.1007 43.6288 17.9731 42.8476C16.9853 42.8064 16.0053 42.8318 15.0159 42.8254C10.2863 42.827 5.5566 42.8238 0.826949 42.8286C0.630011 42.8064 0.308607 42.8429 0.165236 42.6841C0.124273 42.5063 0.0896129 42.3285 0.0628294 42.149C0.798589 42.0379 1.51387 42.084 2.25435 42.0808C6.98243 42.0808 11.7121 42.0808 16.4402 42.0808C16.9554 42.0792 17.469 42.0633 17.981 42.0141C18.1165 41.0535 18.0236 40.1184 18.0692 39.1404C18.0645 38.78 18.1307 38.4418 17.9211 38.1274C17.4705 37.9528 16.9097 38.0083 16.4339 37.9988C11.9689 38.0099 7.5055 38.0004 3.0421 38.0036C2.05899 37.9956 1.07115 38.0306 0.0927643 37.9798C0.0328953 37.5876 -0.0332773 37.251 0.169962 36.8859C0.384231 36.7954 0.598503 36.7969 0.828526 36.789C5.87171 36.8017 10.918 36.7906 15.9612 36.7954C16.6387 36.8017 17.3114 36.8128 17.9842 36.7255C18.0944 35.6205 18.1039 34.4138 17.9731 33.312C17.1428 33.1929 16.3236 33.2405 15.4886 33.2373C11.1292 33.2357 6.77132 33.2373 2.4119 33.2357C1.64463 33.2389 0.878939 33.2532 0.11167 33.2103C-0.00806856 32.6197 -0.0112201 32.1863 0.125849 31.6004C0.582744 31.4972 1.00025 31.4559 1.4666 31.529C2.37094 31.6544 3.24377 31.5131 4.14496 31.4813C8.02857 31.4782 11.9201 31.4845 15.8037 31.4782C16.5331 31.4718 17.2405 31.5845 17.9684 31.4655C18.1118 30.5033 18.0866 29.4999 17.9857 28.533C17.2579 28.4393 16.5347 28.4647 15.8037 28.4679C10.7621 28.4711 5.71731 28.4631 0.675702 28.4711C0.502397 28.4489 0.157362 28.4997 0.114824 28.2678C-0.0836896 27.7376 0.0391953 27.0644 0.140027 26.5198C0.16366 26.2023 0.606378 26.2737 0.826949 26.242C5.81814 26.2467 10.8109 26.2435 15.8037 26.2451C16.5237 26.2483 17.2421 26.2578 17.9621 26.2197C18.1354 25.4211 18.0755 24.5669 17.9889 23.7572C17.313 23.6778 16.6403 23.6969 15.9612 23.7016C10.918 23.7064 5.87171 23.6953 0.828526 23.7064C0.563841 23.6762 0.122701 23.762 0.0801624 23.3889C-0.0569062 22.6427 0.00296034 21.844 0.102217 21.0947C0.872637 21.0565 1.64148 21.0693 2.4119 21.0708C6.71775 21.0708 11.0252 21.0708 15.331 21.0708C16.2149 21.0661 17.0845 21.1153 17.9637 20.9867C18.0976 20.3151 18.0614 19.6483 18.0314 18.9703C17.7652 18.9163 17.5005 18.8687 17.2295 18.8671C12.1863 18.8798 7.13998 18.8687 2.0968 18.8735C1.42406 18.8766 0.760776 18.902 0.0911873 18.8068C-0.0805424 17.7938 0.0848851 16.8301 0.135301 15.8203C0.79071 15.7155 1.43667 15.7457 2.0968 15.7489C7.13998 15.7537 12.1847 15.7441 17.2279 15.7537C17.5147 15.7409 17.8628 15.7616 18.1055 15.5885C18.2898 15.163 18.315 14.6248 18.2347 14.1723C18.0299 14.0786 17.7667 14.0929 17.5446 14.085C12.5534 14.0977 7.56064 14.085 2.56945 14.0913C1.86678 14.0945 1.16883 14.1104 0.469312 14.0389C0.496095 13.207 0.778108 12.4925 1.02389 11.7066C1.15938 11.3129 1.30275 10.8461 1.58476 10.5317C1.9944 10.419 2.46074 10.4746 2.88298 10.465C8.13727 10.4777 13.3932 10.4587 18.6459 10.4746C18.9594 10.4587 19.358 10.5032 19.5912 10.2491C19.8464 9.98556 19.8338 9.68231 19.8968 9.34413C19.1626 9.22823 18.4332 9.25681 17.6943 9.25999C12.8118 9.26316 7.91356 9.25522 3.03265 9.26475C2.76324 9.26316 2.50486 9.206 2.2449 9.13932C2.44184 8.62014 2.71598 8.15654 3.0421 7.70881C3.58565 6.95466 4.1418 6.16398 4.82242 5.52891C5.15642 5.17485 5.74094 5.22883 6.1868 5.19708C10.9149 5.20026 15.6445 5.19708 20.3726 5.19708C21.4172 5.19232 22.405 5.30346 23.4338 5.03514C23.4338 4.85732 23.4338 4.6779 23.4338 4.50008C17.6754 4.46515 11.9074 4.52707 6.15214 4.46833C6.33332 3.95551 6.73981 3.73799 7.13841 3.41886C9.91287 1.38979 13.3112 0.133928 16.7458 0.0132635Z" fill="#0C5E20"/>
<path d="M0.254858 51.3821C1.45834 51.3731 2.66339 51.3806 3.86687 51.3867C4.71795 52.9251 5.36453 54.568 6.24393 56.0897C7.10603 54.5574 7.75418 52.9145 8.621 51.3837C9.90786 51.3806 11.1947 51.3731 12.48 51.3897C12.48 53.9941 12.48 56.5985 12.48 59.2029C11.7453 59.218 11.0107 59.215 10.276 59.2105C10.2162 57.292 10.3122 55.366 10.2288 53.4475C9.82605 53.7685 9.71121 54.1894 9.47523 54.6225C8.69022 56.1458 7.87217 57.6509 7.11233 59.1862C6.53655 59.2256 5.96706 59.2256 5.39127 59.1862C4.54176 57.5222 3.64977 55.8793 2.80497 54.2137C2.66024 53.929 2.49506 53.6746 2.26852 53.4445C2.1757 55.3629 2.27953 57.2905 2.2166 59.209C1.48036 59.2135 0.744111 59.2165 0.00943867 59.2044C0.00314597 56.7333 0.0173049 54.2621 0 51.791C0.0220244 51.576 -0.0550571 51.3791 0.254858 51.3821Z" fill="white"/>
<path d="M23.5456 51.3779C25.832 51.3895 28.1198 51.3664 30.4062 51.3878C30.4093 52.0413 30.4108 52.6949 30.4062 53.35C27.9782 53.4491 25.5379 53.35 23.1084 53.3979C22.8051 53.4111 22.4325 53.4854 22.3909 53.8732C22.3432 54.9046 22.3894 55.9443 22.3694 56.9774C22.3955 57.2744 22.3186 57.6524 22.5788 57.8504C22.9375 57.9412 23.3316 57.9164 23.6996 57.9213C24.9836 57.9098 26.2692 57.9263 27.5533 57.9164C27.8073 57.89 28.0613 57.9345 28.2384 57.6986C28.4632 57.3322 28.3554 56.7694 28.3446 56.3503C27.3285 56.2199 26.3323 56.3057 25.307 56.2711C25.3054 55.8024 25.3054 55.332 25.307 54.8633C27.0082 54.8468 28.7126 54.8518 30.4139 54.8617C30.4169 55.7859 30.4185 56.7117 30.42 57.6375C30.4123 58.1111 30.4216 58.5419 30.1691 58.9544C29.8288 59.4875 29.2884 59.7268 28.7126 59.8274C27.3393 60.0205 26.0059 60.0007 24.6264 59.9974C23.7073 59.9842 22.7666 59.9644 21.8598 59.7928C21.17 59.6657 20.4264 59.0617 20.3478 58.2745C20.2324 57.4692 20.3032 56.6275 20.2863 55.8139C20.3047 54.9129 20.2247 53.9705 20.3709 53.0827C20.4602 52.5166 20.7928 51.9885 21.2824 51.7393C21.9999 51.3581 22.7666 51.3829 23.5456 51.3779Z" fill="white"/>
<path d="M31.9995 51.3779C34.1045 51.3779 36.2079 51.3794 38.3129 51.3779C39.1122 51.3961 40.0366 51.3931 40.7383 51.8277C41.2782 52.1821 41.4689 52.862 41.4719 53.4738C41.4765 54.2688 41.5436 55.1684 40.9579 55.7999C40.4378 56.3238 39.7178 56.2981 39.036 56.4253C39.4158 56.9205 39.8932 57.2491 40.3584 57.6595C40.9426 58.1759 41.5513 58.665 42.1202 59.2011C41.3179 59.2042 40.511 59.236 39.7117 59.1951C39.5012 59.192 39.3151 58.9679 39.158 58.8453C37.7791 57.5565 36.3345 56.336 34.9694 55.0321C35.9852 55.0215 36.9996 55.0381 38.0155 55.0321C38.4517 55.0215 38.9871 54.9579 39.2464 54.5596C39.37 54.3234 39.3547 53.9948 39.2724 53.7464C39.0268 53.3557 38.6134 53.2376 38.1695 53.2573C36.8974 53.2709 35.6237 53.2345 34.3531 53.283C34.2646 55.2532 34.3424 57.2325 34.3135 59.2042C33.5431 59.2148 32.7713 59.2117 32.001 59.2087C31.972 56.601 31.9751 53.9857 31.9995 51.3779Z" fill="white"/>
<path d="M48.2993 51.3793C49.6803 51.3875 51.0869 51.3385 52.4614 51.4902C53.1199 51.5653 53.7655 51.7513 54.1965 52.3011C54.5329 52.7138 54.589 53.2082 54.5986 53.727C54.6018 54.9261 54.5906 56.1269 54.6002 57.326C54.6002 57.8889 54.6002 58.517 54.2814 59.0031C53.9369 59.504 53.397 59.7504 52.8187 59.8499C51.6123 60.0571 50.3243 59.9837 49.1003 59.9983C47.8395 59.9771 46.481 60.0701 45.2442 59.8189C44.5104 59.672 43.7399 59.0961 43.7046 58.2788C43.6566 57.0927 43.703 55.9017 43.687 54.714C43.6998 54.0941 43.6357 53.4431 43.7479 52.8329C43.9481 52.182 44.605 51.7105 45.2458 51.58C46.2375 51.3777 47.2916 51.3989 48.2993 51.3793ZM45.9843 57.8823C46.4345 57.9786 46.8767 58.0406 47.3365 58.0259C48.7286 58.0031 50.124 58.0438 51.5146 58.008C51.8639 57.9623 52.3637 57.9117 52.3701 57.4467C52.4182 56.4271 52.3733 55.4009 52.3925 54.3796C52.3701 54.0859 52.4326 53.7286 52.2051 53.5051C51.7742 53.3322 51.3176 53.3599 50.8626 53.355C49.6322 53.3648 48.4034 53.3599 47.1731 53.355C46.7789 53.3615 46.3993 53.3517 46.0452 53.5557C45.76 53.9407 45.8658 54.5819 45.845 55.0419C45.8866 55.9784 45.7392 56.9883 45.9843 57.8823Z" fill="white"/>
<path d="M56.185 51.3932C56.9589 51.3734 57.7344 51.3718 58.5083 51.3948C58.6195 53.295 58.5083 55.2117 58.5624 57.1152C58.5361 57.5634 58.9516 57.7184 59.3008 57.725C60.379 57.7579 61.4603 57.7217 62.5386 57.7381C62.88 57.725 63.2863 57.7695 63.606 57.6277C63.9706 57.4201 63.9551 57.0295 63.969 56.6438C63.9675 54.892 63.9644 53.1417 63.9659 51.3882C64.7383 51.3767 65.5107 51.3767 66.2815 51.3899C66.3171 53.3576 66.2846 55.3271 66.3001 57.2965C66.3032 58.0562 66.212 58.7698 65.6374 59.2857C64.9855 59.9828 64.1652 59.9564 63.3063 59.9927C61.8635 59.9976 60.4207 60.0075 58.9795 59.9877C58.1685 59.9515 57.4254 59.9103 56.8137 59.2758C56.219 58.7006 56.1572 57.9376 56.1603 57.13C56.1819 55.2183 56.1355 53.3049 56.185 51.3932Z" fill="white"/>
<path d="M68.3379 51.3779C70.3877 51.3977 72.4376 51.3719 74.4859 51.3931C75.2151 51.4128 76.1573 51.4932 76.7088 52.0243C77.2772 52.6221 77.2389 53.613 77.2006 54.3762C77.1516 55.1273 76.9233 55.9967 76.2017 56.3821C75.4296 56.7842 74.4123 56.6947 73.5651 56.7083C73.199 56.6856 72.7808 56.7796 72.4851 56.5156C71.9335 56.0756 71.4004 55.6007 70.9286 55.0757C71.9642 55.0302 73.0029 55.0893 74.0385 55.0514C74.5058 55.0347 75.0527 54.7358 75.0466 54.2138C75.1094 53.5963 74.4338 53.2245 73.8853 53.2549C72.6796 53.2731 71.4648 53.2063 70.2637 53.3004C70.2483 55.2699 70.2851 57.2409 70.2468 59.2089C69.4593 59.218 68.6704 59.2195 67.8829 59.2043C67.8415 56.6795 67.8691 54.1501 67.8661 51.6253C67.9105 51.337 68.1112 51.3931 68.3379 51.3779Z" fill="white"/>
</svg>
