<svg width="50" height="50" viewBox="0 0 50 50" fill="none" xmlns="http://www.w3.org/2000/svg">
<rect width="50" height="50" rx="6" fill="#0C5E20"/>
<path d="M16.4407 16.005C18.947 16.0044 21.4526 16.005 23.9589 16.0044C25.3629 16.0343 26.7627 16.5902 27.8661 17.4354C28.0879 17.5962 28.2551 17.8006 28.4933 17.9375C28.8944 17.6297 29.2592 17.2913 29.6998 17.0355C30.3384 16.6201 31.0486 16.3463 31.7873 16.1616C32.4811 16.0014 33.1877 15.9763 33.8967 16.0175C34.9795 16.121 36.0515 16.482 36.964 17.0672C38.7219 18.1826 39.8963 20.121 39.9987 22.1868C39.9993 25.7338 39.9987 29.2814 39.9987 32.829C39.9969 33.2032 40.0066 33.5732 39.9908 33.9468C39.6927 34.0084 39.4067 33.9707 39.1049 33.9826C37.6712 33.9713 36.2363 33.9803 34.8026 33.9773C34.2445 33.9665 33.7009 34.0394 33.141 33.936C33.1307 33.6664 33.1313 33.3975 33.1331 33.1279C33.135 29.6413 33.1313 26.154 33.135 22.6674C33.1271 22.3751 33.1859 22.0834 32.9671 21.8473C32.709 21.5622 32.2606 21.5108 31.9818 21.7971C31.7206 22.0147 31.7988 22.3094 31.7879 22.6076C31.794 26.1343 31.7873 29.661 31.7915 33.1877C31.7976 33.4429 31.7818 33.6892 31.7449 33.942C31.3431 34.0418 30.9668 33.9659 30.5608 33.9767C29.1871 33.9815 27.8134 33.9707 26.4397 33.982C26.0428 33.9767 25.6192 34.04 25.232 33.9563C25.2011 33.6999 25.209 33.4453 25.2102 33.1877C25.2114 29.7004 25.2096 26.2132 25.2114 22.726C25.209 22.4994 25.2241 22.2448 25.155 22.0272C25.0229 21.6889 24.6182 21.5198 24.277 21.6572C23.9722 21.766 23.8462 22.0643 23.8492 22.3662C23.8498 25.9538 23.8492 29.5408 23.8498 33.1279C23.851 33.4082 23.8607 33.6856 23.8231 33.9641C23.3699 34.0191 22.8972 33.9755 22.4409 33.9773C21.718 33.9797 20.9939 33.9725 20.271 33.985C19.8008 34.0191 19.336 33.9719 18.8658 33.9779C18.3071 33.9856 17.7459 33.9641 17.1872 33.9868C15.1894 33.9671 13.1709 33.9821 11.17 33.9773C10.8053 33.9725 10.432 33.9952 10.0708 33.9563C10.0763 33.777 10.2502 33.8201 10.3793 33.8039C12.2983 33.8075 14.2192 33.8045 16.1389 33.8057C16.4007 33.8069 16.6601 33.8147 16.9206 33.7848C16.9527 33.526 16.9449 33.2683 16.9436 33.0083C16.9406 32.7124 16.9618 32.4255 16.9127 32.1314C16.5328 32.1159 16.1559 32.1255 15.7754 32.1231C13.9563 32.1237 12.1372 32.1225 10.3181 32.1243C10.2423 32.1159 10.1187 32.1297 10.0636 32.0699C10.0478 32.0029 10.0345 31.936 10.0242 31.8684C10.3071 31.8266 10.5823 31.8439 10.8671 31.8427C12.6856 31.8427 14.5047 31.8427 16.3231 31.8427C16.5213 31.8421 16.7188 31.8362 16.9158 31.8176C16.9679 31.456 16.9321 31.1039 16.9497 30.7357C16.9479 30.6 16.9733 30.4727 16.8927 30.3544C16.7194 30.2886 16.5037 30.3095 16.3207 30.3059C14.6034 30.3101 12.8867 30.3065 11.17 30.3077C10.7919 30.3047 10.412 30.3179 10.0357 30.2988C10.0127 30.1511 9.9872 30.0244 10.0654 29.8869C10.1478 29.8529 10.2302 29.8535 10.3187 29.8505C12.2583 29.8552 14.1992 29.8511 16.1389 29.8529C16.3995 29.8552 16.6582 29.8594 16.917 29.8266C16.9594 29.4105 16.963 28.9562 16.9127 28.5414C16.5934 28.4966 16.2783 28.5145 15.9571 28.5133C14.2804 28.5127 12.6044 28.5133 10.9277 28.5127C10.6326 28.5139 10.3381 28.5193 10.0429 28.5032C9.9969 28.2808 9.99568 28.1176 10.0484 27.897C10.2241 27.8582 10.3847 27.8427 10.5641 27.8701C10.9119 27.9174 11.2476 27.8642 11.5942 27.8522C13.0879 27.851 14.5846 27.8534 16.0783 27.851C16.3589 27.8486 16.631 27.8911 16.9109 27.8462C16.9661 27.484 16.9564 27.1062 16.9176 26.7422C16.6376 26.7069 16.3595 26.7165 16.0783 26.7177C14.1393 26.7189 12.199 26.7159 10.2599 26.7189C10.1932 26.7105 10.0605 26.7297 10.0442 26.6424C9.96781 26.4427 10.0151 26.1893 10.0539 25.9843C10.0629 25.8647 10.2332 25.8916 10.3181 25.8797C12.2377 25.8815 14.158 25.8803 16.0783 25.8809C16.3553 25.8821 16.6316 25.8857 16.9085 25.8713C16.9752 25.5706 16.9521 25.2491 16.9188 24.9442C16.6588 24.9143 16.4001 24.9215 16.1389 24.9233C14.1992 24.9251 12.2583 24.9209 10.3187 24.9251C10.2169 24.9137 10.0472 24.946 10.0308 24.8055C9.97811 24.5246 10.0011 24.2239 10.0393 23.9418C10.3356 23.9275 10.6313 23.9322 10.9277 23.9328C12.5837 23.9328 14.2405 23.9328 15.8965 23.9328C16.2365 23.931 16.571 23.9496 16.9091 23.9012C16.9606 23.6483 16.9467 23.3973 16.9352 23.142C16.8328 23.1217 16.731 23.1038 16.6267 23.1032C14.687 23.1079 12.7461 23.1038 10.8065 23.1056C10.5477 23.1068 10.2926 23.1163 10.0351 23.0805C9.96902 22.6991 10.0326 22.3363 10.052 21.9561C10.3041 21.9167 10.5526 21.928 10.8065 21.9292C12.7461 21.931 14.6864 21.9274 16.6261 21.931C16.7364 21.9262 16.8703 21.934 16.9636 21.8688C17.0345 21.7086 17.0442 21.506 17.0133 21.3356C16.9346 21.3004 16.8334 21.3058 16.7479 21.3028C14.8282 21.3076 12.9079 21.3028 10.9883 21.3052C10.718 21.3064 10.4496 21.3123 10.1805 21.2854C10.1908 20.9722 10.2993 20.7032 10.3938 20.4074C10.4459 20.2591 10.5011 20.0834 10.6095 19.965C10.7671 19.9226 10.9464 19.9435 11.1088 19.9399C13.1297 19.9447 15.1512 19.9375 17.1715 19.9435C17.2921 19.9375 17.4454 19.9543 17.5351 19.8586C17.6332 19.7594 17.6284 19.6452 17.6526 19.5179C17.3702 19.4743 17.0897 19.485 16.8055 19.4862C14.9276 19.4874 13.0437 19.4844 11.1664 19.488C11.0628 19.4874 10.9634 19.4659 10.8634 19.4408C10.9392 19.2453 11.0446 19.0708 11.17 18.9022C11.3791 18.6183 11.593 18.3206 11.8548 18.0815C11.9832 17.9482 12.2081 17.9686 12.3795 17.9566C14.198 17.9578 16.0171 17.9566 17.8356 17.9566C18.2374 17.9548 18.6173 17.9967 19.013 17.8956C19.013 17.8287 19.013 17.7612 19.013 17.6942C16.7982 17.6811 14.5798 17.7044 12.3662 17.6823C12.4359 17.4892 12.5922 17.4073 12.7455 17.2871C13.8126 16.5232 15.1197 16.0504 16.4407 16.005Z" fill="white"/>
</svg>
