<svg width="26" height="24" viewBox="0 0 26 24" fill="none" xmlns="http://www.w3.org/2000/svg">
<path fill-rule="evenodd" clip-rule="evenodd" d="M12.9886 2L2.15292 12.8357L10.4403 21.1206L9.84119 21.7197C9.7524 21.8086 9.64697 21.8791 9.53093 21.9272C9.41489 21.9752 9.29052 22 9.16491 22C9.0393 22 8.91493 21.9752 8.79889 21.9272C8.68285 21.8791 8.57742 21.8086 8.48863 21.7197L0.28025 13.5114C0.191404 13.4226 0.120923 13.3172 0.0728369 13.2011C0.0247504 13.0851 0 12.9607 0 12.8351C0 12.7095 0.0247504 12.5851 0.0728369 12.4691C0.120923 12.353 0.191404 12.2476 0.28025 12.1588L9.76342 2.67564C10.1344 2.30468 10.8699 2 11.3952 2H12.9886ZM16.4948 2H24.1435C24.3971 2 24.6403 2.10073 24.8196 2.28003C24.9989 2.45934 25.0996 2.70252 25.0996 2.95609V10.6048C25.0996 11.1301 24.7962 11.8643 24.424 12.2366L14.9408 21.7197C14.852 21.8086 14.7466 21.8791 14.6305 21.9272C14.5145 21.9752 14.3901 22 14.2645 22C14.1389 22 14.0145 21.9752 13.8985 21.9272C13.7825 21.8791 13.677 21.8086 13.5882 21.7197L5.37986 13.5114C5.29101 13.4226 5.22053 13.3172 5.17245 13.2011C5.12436 13.0851 5.09961 12.9607 5.09961 12.8351C5.09961 12.7095 5.12436 12.5851 5.17245 12.4691C5.22053 12.353 5.29101 12.2476 5.37986 12.1588L14.863 2.67564C15.234 2.30468 15.9696 2 16.4948 2ZM18.6311 9.5029C18.8631 9.59911 19.1119 9.64866 19.363 9.64875C19.8704 9.64892 20.357 9.44755 20.7158 9.08895C21.0746 8.73034 21.2763 8.24387 21.2765 7.73656C21.2767 7.22925 21.0753 6.74265 20.7167 6.3838C20.3581 6.02496 19.8716 5.82327 19.3643 5.8231C19.1131 5.82302 18.8644 5.87241 18.6323 5.96846C18.4002 6.06451 18.1892 6.20534 18.0116 6.3829C17.8339 6.56047 17.6929 6.77129 17.5967 7.00333C17.5005 7.23537 17.4509 7.48409 17.4509 7.73529C17.4508 7.98648 17.5002 8.23524 17.5962 8.46734C17.6923 8.69945 17.8331 8.91036 18.0107 9.08804C18.1882 9.26573 18.399 9.40669 18.6311 9.5029Z" fill="#0C5E20"/>
</svg>
