<svg width="24" height="24" viewBox="0 0 24 24" fill="none" xmlns="http://www.w3.org/2000/svg">
<path fill-rule="evenodd" clip-rule="evenodd" d="M7.50002 13.375C7.50002 13.375 7.37502 12.75 7.12502 12L8.00002 12.625L8.37502 13L8.62502 13.5C9.12502 14.25 9.75002 14.625 10.5 14.875L11 15C11.625 15.125 12.25 15.125 12.75 15L13.25 14.875C14 14.75 14.5 14.375 15 13.75L15.625 13L16 12.625L16.875 12L12.875 10.875C12.25 10.625 11.625 10.75 11 10.875L7.12502 12C6.75002 10.75 6.37502 8.25 6.50002 7H8.50002C8.37502 6.625 8.25002 6.25 8.25002 5.75H6.87502C7.37502 4 8.12502 3.25 9.62502 2.875C10.25 2.375 11.125 2 12 2C12.875 2 13.75 2.375 14.375 2.875C15.875 3.25 16.75 4 17.125 5.75H15.75C15.75 6.01795 15.7141 6.25 15.6808 6.46539C15.6519 6.65192 15.625 6.82596 15.625 7H17.5C17.625 8.25 17.25 10.75 16.875 12.125C16.75 13 16.5 13.5 16.5 13.5C15.9893 14.33 15.4133 14.6382 14.972 14.8744C14.5492 15.1006 14.25 15.2608 14.25 15.75C14.25 16.125 14.5 16.375 14.875 16.625L12 18.75L9.12502 16.5C9.50002 16.375 9.75002 16 9.75002 15.625C9.75002 15.208 9.46619 15.0465 9.06083 14.8159C8.6155 14.5625 8.02351 14.2257 7.50002 13.375ZM12 3.25C10.625 3.25 9.50002 4.375 9.50002 5.75C9.50002 7.125 10.625 8.25 12 8.25C13.375 8.25 14.5 7.125 14.5 5.75C14.5 4.375 13.375 3.25 12 3.25ZM17.3603 17.0856C18.6985 17.1825 20.0368 17.2794 21.375 19.75C21.625 20.25 21.875 21.125 22 22H2C2.125 21.125 2.375 20.25 2.625 19.75C4.04336 17.1315 5.36648 17.0842 6.84374 17.0314C7.05896 17.0237 7.27746 17.0159 7.5 17H7.625L12 20.25L16.375 17H16.5C16.7868 17.0441 17.0735 17.0649 17.3603 17.0856Z" fill="#0C5E20"/>
</svg>
