<svg width="24" height="24" viewBox="0 0 24 24" fill="none" xmlns="http://www.w3.org/2000/svg">
<path d="M6.27592 11.533L11.5329 6.27687L9.80946 4.55347L7.40012 6.9628C7.37138 6.99158 7.33726 7.01441 7.29969 7.02999C7.26212 7.04557 7.22185 7.05359 7.18118 7.05359C7.1405 7.05359 7.10023 7.04557 7.06266 7.02999C7.0251 7.01441 6.99097 6.99158 6.96223 6.9628L6.52435 6.52491C6.40326 6.40382 6.40326 6.20773 6.52435 6.08703L8.93369 3.6777L7.61965 2.36327C7.13567 1.8793 6.35131 1.8793 5.86733 2.36327L2.36308 5.8675C1.8795 6.35148 1.87911 7.13584 2.36308 7.61981L6.27592 11.533ZM21.4503 6.97061C22.1831 6.23781 22.1827 5.04994 21.4503 4.31714L19.6827 2.5496C18.9499 1.8168 17.7617 1.8168 17.0285 2.5496L15.2309 4.34683L19.6527 8.76862L21.4503 6.97061ZM14.3469 5.23119L2.7455 16.831L2.0127 21.0278C1.91387 21.5938 2.40683 22.0867 2.97323 21.9871L7.17043 21.2512L18.7687 9.65259L14.3469 5.23119ZM21.637 16.3806L20.323 15.0665L17.9136 17.4759C17.7925 17.597 17.5965 17.597 17.4757 17.4759L17.0379 17.038C16.9172 16.9169 16.9172 16.7208 17.0379 16.6001L19.4472 14.1908L17.723 12.4666L12.4661 17.7227L16.3805 21.6367C16.8644 22.1207 17.6488 22.1207 18.1328 21.6367L21.637 18.1329C22.121 17.6489 22.121 16.8646 21.637 16.3806Z" fill="#0C5E20"/>
</svg>
