<?xml version="1.0" encoding="utf-8"?><svg viewBox="0 0 46 46" xmlns="http://www.w3.org/2000/svg" xmlns:xlink="http://www.w3.org/1999/xlink"><style>:root>svg{display:none}:root>svg:target{display:block}</style><svg fill="none" viewBox="0 0 24 24" id="address" xmlns="http://www.w3.org/2000/svg"><path d="m6.276 11.533 5.257-5.256-1.724-1.724L7.4 6.963a.31.31 0 0 1-.438 0l-.438-.438a.31.31 0 0 1 0-.438l2.41-2.41L7.62 2.364a1.239 1.239 0 0 0-1.753 0L2.363 5.867a1.24 1.24 0 0 0 0 1.753l3.913 3.913ZM21.45 6.971a1.877 1.877 0 0 0 0-2.654L19.683 2.55a1.877 1.877 0 0 0-2.654 0L15.23 4.347l4.422 4.422L21.45 6.97Zm-7.103-1.74-11.601 11.6-.733 4.197a.83.83 0 0 0 .96.96l4.197-.737L18.77 9.653 14.347 5.23Zm7.29 11.15-1.314-1.315-2.41 2.41a.31.31 0 0 1-.437 0l-.438-.438a.31.31 0 0 1 0-.438l2.41-2.41-1.725-1.723-5.257 5.256 3.915 3.914a1.239 1.239 0 0 0 1.752 0l3.504-3.504a1.239 1.239 0 0 0 0-1.752Z" fill="currentColor"/></svg><svg fill="none" viewBox="0 0 8 6" id="arrow-bottom" xmlns="http://www.w3.org/2000/svg"><path d="m.5 1.5 3.5 3 3.5-3" stroke="#2A2F47" stroke-width="1.5"/></svg><svg fill="none" viewBox="0 0 6 11" id="arrow-right" xmlns="http://www.w3.org/2000/svg"><path d="m1 1 4 4.5L1 10" stroke="currentColor" stroke-width="1.5"/></svg><svg fill="none" viewBox="0 0 17 13" id="arrow-right-wide" xmlns="http://www.w3.org/2000/svg"><path d="M16.53 7.03a.75.75 0 0 0 0-1.06l-4.773-4.773a.75.75 0 0 0-1.06 1.06L14.939 6.5l-4.242 4.243a.75.75 0 0 0 1.06 1.06L16.53 7.03ZM0 7.25h16v-1.5H0v1.5Z" fill="#fff"/></svg><svg fill="none" viewBox="0 0 30 21" id="burger" xmlns="http://www.w3.org/2000/svg"><path stroke="#000" d="M0 .5h30M0 10.5h30M0 20.5h30"/></svg><svg fill="none" viewBox="0 0 20 20" id="cart" xmlns="http://www.w3.org/2000/svg"><path fill-rule="evenodd" clip-rule="evenodd" d="M11.768 9.361h2.306a.63.63 0 0 0 .625-.638.625.625 0 0 0-.625-.638h-2.306c-.35 0-.625.281-.625.638a.63.63 0 0 0 .625.638Zm5.046-4.421c.508 0 .84.178 1.174.57.333.39.391.952.316 1.461l-.79 5.58c-.15 1.072-1.05 1.861-2.107 1.861H6.321c-1.108 0-2.023-.866-2.115-1.989l-.766-9.27-1.257-.221A.64.64 0 0 1 2.4 1.674l1.986.305c.283.052.491.29.516.579l.158 1.905a.513.513 0 0 0 .508.477h11.246ZM6.189 15.757c-.7 0-1.266.578-1.266 1.292 0 .706.566 1.284 1.266 1.284.69 0 1.257-.578 1.257-1.284 0-.714-.566-1.292-1.257-1.292Zm9.367 0c-.7 0-1.265.578-1.265 1.292 0 .706.566 1.284 1.265 1.284.691 0 1.258-.578 1.258-1.284 0-.714-.567-1.292-1.258-1.292Z" fill="#fff"/></svg><svg fill="none" viewBox="0 0 46 46" id="close" xmlns="http://www.w3.org/2000/svg"><path d="M32.841 14.154 14.154 32.84m0-18.687L32.84 32.84" stroke="currentColor" stroke-width="1.5" stroke-linecap="round" stroke-linejoin="round"/></svg><svg fill="none" viewBox="0 0 12 11" id="email" xmlns="http://www.w3.org/2000/svg"><path fill-rule="evenodd" clip-rule="evenodd" d="M8.881.25a2.95 2.95 0 0 1 2.953 2.946v4.608A2.95 2.95 0 0 1 8.88 10.75H3.12A2.95 2.95 0 0 1 .167 7.804V3.196A2.946 2.946 0 0 1 3.119.25H8.88Zm.928 3.815.047-.047a.451.451 0 0 0-.006-.583.49.49 0 0 0-.309-.152.443.443 0 0 0-.327.117l-2.63 2.1a.914.914 0 0 1-1.167 0L2.792 3.4a.446.446 0 0 0-.625.624l.077.076 2.654 2.07a1.834 1.834 0 0 0 2.28 0l2.631-2.105Z" fill="currentColor"/></svg><svg fill="none" viewBox="0 0 13 18" id="location" xmlns="http://www.w3.org/2000/svg"><path fill-rule="evenodd" clip-rule="evenodd" d="M6.764 17.166h.002l.004-.004.014-.01.054-.04a16.854 16.854 0 0 0 .89-.712c.75-.64 1.45-1.336 2.097-2.08 1.517-1.754 3.091-4.257 3.091-7.119a6.47 6.47 0 0 0-1.878-4.56 6.398 6.398 0 0 0-6.996-1.399c-.78.324-1.486.8-2.08 1.399A6.472 6.472 0 0 0 .082 7.202c0 2.861 1.575 5.364 3.091 7.117a19.887 19.887 0 0 0 2.79 2.645c.083.064.167.126.251.188l.015.01.004.003.002.001c.158.111.37.111.528 0Zm2.027-10a2.292 2.292 0 1 1-4.583 0 2.292 2.292 0 0 1 4.583 0Z" fill="#0C5E20"/></svg><svg fill="none" viewBox="0 0 14 15" id="phone" xmlns="http://www.w3.org/2000/svg"><path d="M8.41 3.702a.503.503 0 0 0-.19.986 2.02 2.02 0 0 1 1.6 1.604v.001a.501.501 0 1 0 .982-.193 3.018 3.018 0 0 0-2.391-2.398Z" fill="currentColor"/><path d="M8.374 1.671a.497.497 0 0 0-.553.444.502.502 0 0 0 .442.554 4.032 4.032 0 0 1 3.573 3.58.5.5 0 1 0 .994-.111A5.026 5.026 0 0 0 8.374 1.67Z" fill="currentColor"/><path fill-rule="evenodd" clip-rule="evenodd" d="M6.435 8.067c2.327 2.326 2.855-.365 4.337 1.116 1.428 1.428 2.249 1.714.44 3.523-.227.182-1.668 2.374-6.73-2.686C-.58 4.959 1.612 3.517 1.794 3.29c1.814-1.814 2.095-.988 3.524.44 1.481 1.481-1.209 2.01 1.118 4.337Z" fill="currentColor"/></svg><svg fill="none" viewBox="0 0 14 15" id="phone-input" xmlns="http://www.w3.org/2000/svg"><path d="M8.41 3.703a.503.503 0 0 0-.19.986 2.02 2.02 0 0 1 1.6 1.604.501.501 0 1 0 .982-.192 3.018 3.018 0 0 0-2.391-2.398Z" fill="#9B9EB0"/><path d="M8.374 1.672a.497.497 0 0 0-.553.444.502.502 0 0 0 .442.553 4.032 4.032 0 0 1 3.573 3.581.5.5 0 1 0 .994-.112 5.026 5.026 0 0 0-4.456-4.466Z" fill="#9B9EB0"/><path fill-rule="evenodd" clip-rule="evenodd" d="M6.435 8.067c2.327 2.326 2.855-.365 4.337 1.116 1.428 1.428 2.249 1.714.44 3.523-.227.182-1.668 2.374-6.73-2.686C-.58 4.959 1.612 3.517 1.794 3.29c1.814-1.814 2.095-.988 3.524.44 1.481 1.481-1.209 2.01 1.118 4.337Z" fill="#9B9EB0"/></svg><svg fill="none" viewBox="0 0 16 14" id="tg" xmlns="http://www.w3.org/2000/svg"><path d="M15.5.96 13.127 12.96s-.332.832-1.244.433L6.41 9.182l-.026-.013c.74-.666 6.474-5.838 6.725-6.072.388-.363.147-.58-.304-.305l-8.47 5.396-3.267-1.103S.552 6.9.503 6.502c-.05-.4.58-.615.58-.615L14.405.644S15.5.162 15.5.961Z" fill="#27A6E5"/></svg><svg fill="none" viewBox="0 0 14 15" id="user" xmlns="http://www.w3.org/2000/svg"><path fill-rule="evenodd" clip-rule="evenodd" d="M10.088 4.753A3.077 3.077 0 0 1 7 7.84a3.077 3.077 0 0 1-3.088-3.087A3.076 3.076 0 0 1 7 1.667a3.076 3.076 0 0 1 3.088 3.086ZM7 13.333c-2.53 0-4.667-.41-4.667-1.997 0-1.588 2.15-1.984 4.667-1.984 2.53 0 4.667.411 4.667 1.998S9.517 13.334 7 13.334Z" fill="#9B9EB0"/></svg><svg fill="none" viewBox="0 0 16 16" id="wa" xmlns="http://www.w3.org/2000/svg"><path fill-rule="evenodd" clip-rule="evenodd" d="M11.437 9.489c-.187-.093-1.105-.542-1.276-.605-.17-.061-.295-.092-.42.094-.124.185-.482.604-.59.728-.11.124-.218.139-.405.047-.186-.094-.788-.29-1.5-.922a5.595 5.595 0 0 1-1.039-1.287c-.108-.186-.012-.286.082-.379.084-.083.186-.217.28-.325.094-.109.124-.186.187-.31.062-.124.031-.232-.016-.326-.047-.093-.42-1.007-.575-1.379-.152-.362-.306-.312-.42-.319a8.112 8.112 0 0 0-.358-.006.685.685 0 0 0-.497.233c-.172.185-.653.635-.653 1.549 0 .914.668 1.797.761 1.921.094.124 1.316 2 3.188 2.805.446.19.793.305 1.064.39a2.56 2.56 0 0 0 1.176.074c.358-.053 1.104-.45 1.26-.883.155-.434.155-.806.108-.883-.046-.078-.17-.124-.358-.217Zm-3.405 4.627h-.003a6.22 6.22 0 0 1-3.16-.862l-.226-.133-2.35.613.627-2.28-.147-.233a6.141 6.141 0 0 1-.95-3.288c.002-3.406 2.787-6.177 6.211-6.177 1.658 0 3.217.643 4.389 1.81a6.138 6.138 0 0 1 1.816 4.372c-.001 3.406-2.786 6.178-6.207 6.178ZM13.315 2.68A7.45 7.45 0 0 0 8.032.5C3.914.5.563 3.834.561 7.933c0 1.31.344 2.588.997 3.715L.5 15.5l3.959-1.034a7.49 7.49 0 0 0 3.57.905h.003c4.116 0 7.467-3.334 7.468-7.433a7.359 7.359 0 0 0-2.185-5.258Z" fill="#60D568"/></svg></svg>