<svg width="13" height="18" fill="none" xmlns="http://www.w3.org/2000/svg"><path fill-rule="evenodd" clip-rule="evenodd" d="M6.764 17.166h.002l.004-.004.014-.01.054-.04a16.854 16.854 0 00.89-.712c.75-.64 1.45-1.336 2.097-2.08 1.517-1.754 3.091-4.257 3.091-7.119a6.47 6.47 0 00-1.878-4.56 6.398 6.398 0 00-6.996-1.399c-.78.324-1.486.8-2.08 1.399A6.472 6.472 0 00.082 7.202c0 2.861 1.575 5.364 3.091 7.117a19.887 19.887 0 002.79 2.645c.083.064.167.126.251.188l.015.01.004.003.002.001c.158.111.37.111.528 0zm2.027-10a2.292 2.292 0 11-4.583 0 2.292 2.292 0 014.583 0z" fill="#0C5E20"/></svg>