<svg width="14" height="15" fill="none" xmlns="http://www.w3.org/2000/svg"><path d="M8.41 3.702a.503.503 0 00-.19.986 2.02 2.02 0 011.6 1.604v.001a.501.501 0 10.982-.193 3.018 3.018 0 00-2.391-2.398z" fill="currentColor"/><path d="M8.374 1.671a.497.497 0 00-.553.444.502.502 0 00.442.554 4.032 4.032 0 013.573 3.58.5.5 0 10.994-.111A5.026 5.026 0 008.374 1.67z" fill="currentColor"/><path fill-rule="evenodd" clip-rule="evenodd" d="M6.435 8.067c2.327 2.326 2.855-.365 4.337 1.116 1.428 1.428 2.249 1.714.44 3.523-.227.182-1.668 2.374-6.73-2.686C-.58 4.959 1.612 3.517 1.794 3.29c1.814-1.814 2.095-.988 3.524.44 1.481 1.481-1.209 2.01 1.118 4.337z" fill="currentColor"/></svg>