<svg width="26" height="25" viewBox="0 0 26 25" fill="none" xmlns="http://www.w3.org/2000/svg">
<g opacity="0.5" clip-path="url(#clip0_10_4769)">
<path d="M2.85645 0.5H7.46191C8.22495 0.500065 8.85237 1.08007 8.92773 1.82324L8.93555 1.97363C8.93371 3.35511 9.12515 4.72909 9.50391 6.05566L9.67773 6.62109C9.84528 7.15126 9.70374 7.73055 9.31055 8.12402L9.28613 8.14941L9.26465 8.17676L7.17969 10.9482L6.99316 11.1963L7.13184 11.4727C8.71171 14.618 11.2646 17.1697 14.4102 18.749L14.6875 18.8887L14.9355 18.7021L17.7744 16.5596L17.7959 16.5439L17.8154 16.5254C18.154 16.2077 18.623 16.0771 19.0703 16.167L19.2598 16.2197L19.2686 16.2227C20.7661 16.7146 22.333 16.9629 23.9092 16.96V16.9609C24.723 16.961 25.3828 17.6207 25.3828 18.4346V23.0264C25.3828 23.8402 24.723 24.499 23.9092 24.499C11.4742 24.4846 1.39727 14.4086 1.38281 1.97363C1.38284 1.15979 2.0426 0.500029 2.85645 0.5Z" stroke="black"/>
<path d="M25.2279 10.5263C24.8645 10.5263 24.57 10.2318 24.57 9.86843C24.5642 5.14731 20.7384 1.32157 16.0173 1.31577C15.6539 1.31577 15.3594 1.0212 15.3594 0.657854C15.3594 0.294511 15.6539 0 16.0173 0C21.4651 0.0057977 25.8799 4.42062 25.8857 9.86843C25.8857 10.2318 25.5912 10.5263 25.2279 10.5263Z" fill="black"/>
<path d="M19.4881 10.2632C19.1248 10.2632 18.8302 9.96863 18.8302 9.60529C18.8302 7.78857 17.3574 6.31583 15.5407 6.31583C15.1774 6.31583 14.8828 6.02126 14.8828 5.65792C14.8828 5.29457 15.1774 5 15.5407 5C18.0842 5 20.146 7.06189 20.146 9.60529C20.146 9.96863 19.8514 10.2632 19.4881 10.2632Z" fill="black"/>
</g>
<defs>
<clipPath id="clip0_10_4769">
<rect width="25" height="25" fill="white" transform="translate(0.882812)"/>
</clipPath>
</defs>
</svg>
