<svg width="16" height="16" fill="none" xmlns="http://www.w3.org/2000/svg"><path fill-rule="evenodd" clip-rule="evenodd" d="M11.437 9.489c-.187-.093-1.105-.542-1.276-.605-.17-.061-.295-.092-.42.094-.124.185-.482.604-.59.728-.11.124-.218.139-.405.047-.186-.094-.788-.29-1.5-.922a5.595 5.595 0 01-1.039-1.287c-.108-.186-.012-.286.082-.379.084-.083.186-.217.28-.325.094-.109.124-.186.187-.31.062-.124.031-.232-.016-.326-.047-.093-.42-1.007-.575-1.379-.152-.362-.306-.312-.42-.319a8.112 8.112 0 00-.358-.006.685.685 0 00-.497.233c-.172.185-.653.635-.653 1.549 0 .914.668 1.797.761 1.921.094.124 1.316 2 3.188 2.805.446.19.793.305 1.064.39a2.56 2.56 0 001.176.074c.358-.053 1.104-.45 1.26-.883.155-.434.155-.806.108-.883-.046-.078-.17-.124-.358-.217zm-3.405 4.627h-.003a6.22 6.22 0 01-3.16-.862l-.226-.133-2.35.613.627-2.28-.147-.233a6.141 6.141 0 01-.95-3.288c.002-3.406 2.787-6.177 6.211-6.177 1.658 0 3.217.643 4.389 1.81a6.138 6.138 0 011.816 4.372c-.001 3.406-2.786 6.178-6.207 6.178zM13.315 2.68A7.45 7.45 0 008.032.5C3.914.5.563 3.834.561 7.933c0 1.31.344 2.588.997 3.715L.5 15.5l3.959-1.034a7.49 7.49 0 003.57.905h.003c4.116 0 7.467-3.334 7.468-7.433a7.359 7.359 0 00-2.185-5.258z" fill="#60D568"/></svg>